<?xml version="1.0" encoding="utf-8"?>
<!-- Generator: Adobe Illustrator 23.0.4, SVG Export Plug-In . SVG Version: 6.00 Build 0)  -->
<svg version="1.1" id="Layer_1" xmlns="http://www.w3.org/2000/svg" xmlns:xlink="http://www.w3.org/1999/xlink" x="0px" y="0px"
	 viewBox="0 0 1280 1280" style="enable-background:new 0 0 1280 1280;" xml:space="preserve">
<style type="text/css">
	.st0{fill:#4D4D4D;}
</style>
<title>icons</title>
<g id="Aero_Press">
	<path class="st0" d="M507.7,262c-2.7,1.6-3.5,5.1-1.9,7.8c1,1.7,2.9,2.7,4.8,2.7h258.6c3.1,0,5.7-2.6,5.7-5.7c0-2-1-3.8-2.7-4.8
		l-2.5-1.5c-11.5-7-24.7-10.7-38.2-10.7H548.4c-13.5,0-26.7,3.7-38.2,10.7L507.7,262z"/>
	<path class="st0" d="M744,617.2H536v-362h208V617.2z M568,585.2h144v-298H568V585.2z"/>
	<path class="st0" d="M757,979.2H523v-394h234V979.2z M555,947.2h170v-330H555V947.2z"/>
	<rect x="513" y="963.2" class="st0" width="254" height="22"/>
	<rect x="473" y="985.2" class="st0" width="334" height="27.8"/>
	<rect x="534" y="996.2" class="st0" width="212" height="34"/>
	<path class="st0" d="M673,914.2c-13.2,0-24-10.8-24-24s10.8-24,24-24s24,10.8,24,24S686.2,914.2,673,914.2z M673,882.2
		c-4.4,0-8,3.6-8,8s3.6,8,8,8s8-3.6,8-8S677.4,882.2,673,882.2z"/>
	<path class="st0" d="M673,841.2c-13.2,0-24-10.8-24-24s10.8-24,24-24s24,10.8,24,24S686.2,841.2,673,841.2z M673,809.2
		c-4.4,0-8,3.6-8,8s3.6,8,8,8s8-3.6,8-8S677.4,809.2,673,809.2z"/>
	<path class="st0" d="M673,768.2c-13.2,0-24-10.8-24-24s10.8-24,24-24s24,10.8,24,24S686.2,768.2,673,768.2z M673,736.2
		c-4.4,0-8,3.6-8,8s3.6,8,8,8s8-3.6,8-8S677.4,736.2,673,736.2z"/>
	<path class="st0" d="M673,695.2c-13.2,0-24-10.8-24-24s10.8-24,24-24s24,10.8,24,24S686.2,695.2,673,695.2z M673,663.2
		c-4.4,0-8,3.6-8,8s3.6,8,8,8s8-3.6,8-8S677.4,663.2,673,663.2z"/>
</g>
</svg>
