<?xml version="1.0" encoding="utf-8"?>
<!-- Generator: Adobe Illustrator 23.0.4, SVG Export Plug-In . SVG Version: 6.00 Build 0)  -->
<svg version="1.1" id="Layer_1" xmlns="http://www.w3.org/2000/svg" xmlns:xlink="http://www.w3.org/1999/xlink" x="0px" y="0px"
	 viewBox="0 0 164.41 266.46" style="enable-background:new 0 0 164.41 266.46;" xml:space="preserve">
<style type="text/css">
	.st0{fill:#FFFFFF;}
	.st1{fill:#CEBFBD;}
	.st2{fill:#58595B;}
	.st3{fill:#E2D1D0;}
</style>
<rect x="10" y="7.42" class="st0" width="144" height="252"/>
<rect x="19" y="16.42" class="st1" width="126" height="23.83"/>
<g>
	<path class="st2" d="M25.54,134.49v0.88h0.25c0.17,0,0.29,0.03,0.36,0.1c0.07,0.07,0.11,0.15,0.11,0.25c0,0.1-0.04,0.19-0.11,0.25
		c-0.07,0.07-0.19,0.1-0.36,0.1h-1.06c-0.17,0-0.29-0.03-0.36-0.1c-0.07-0.06-0.11-0.15-0.11-0.25c0-0.1,0.04-0.19,0.11-0.25
		c0.07-0.06,0.19-0.1,0.36-0.1h0.11v-2.74h-0.11c-0.17,0-0.29-0.03-0.36-0.1c-0.07-0.07-0.11-0.15-0.11-0.25s0.04-0.19,0.11-0.25
		c0.07-0.06,0.19-0.1,0.36-0.1l1.59,0c0.49,0,0.88,0.12,1.15,0.37c0.27,0.25,0.41,0.54,0.41,0.89c0,0.22-0.06,0.42-0.19,0.6
		c-0.13,0.18-0.32,0.34-0.58,0.48c0.15,0.13,0.31,0.3,0.47,0.5c0.1,0.13,0.25,0.33,0.42,0.61c0.18,0,0.29,0.02,0.35,0.05
		c0.1,0.07,0.15,0.17,0.15,0.3c0,0.1-0.04,0.19-0.11,0.25c-0.07,0.07-0.19,0.1-0.36,0.1h-0.4c-0.57-0.88-1.04-1.4-1.41-1.58H25.54z
		 M25.54,133.79h0.55c0.2,0,0.38-0.03,0.54-0.09c0.21-0.08,0.36-0.17,0.43-0.26s0.11-0.18,0.11-0.27c0-0.13-0.07-0.25-0.21-0.37
		c-0.14-0.11-0.35-0.17-0.62-0.17h-0.8V133.79z"/>
	<path class="st2" d="M32.23,134.87h-2.88c0.07,0.18,0.2,0.33,0.39,0.44c0.19,0.11,0.44,0.17,0.75,0.17c0.26,0,0.6-0.06,1.04-0.17
		c0.18-0.05,0.3-0.07,0.37-0.07c0.09,0,0.17,0.03,0.24,0.1c0.06,0.07,0.1,0.15,0.1,0.25c0,0.09-0.03,0.17-0.1,0.23
		c-0.09,0.08-0.31,0.16-0.67,0.24c-0.35,0.08-0.69,0.12-1.02,0.12c-0.56,0-1.01-0.16-1.34-0.48c-0.34-0.32-0.5-0.71-0.5-1.17
		c0-0.49,0.18-0.89,0.54-1.2c0.36-0.31,0.78-0.46,1.26-0.46c0.28,0,0.55,0.05,0.78,0.15s0.42,0.21,0.53,0.32
		c0.16,0.17,0.3,0.38,0.41,0.63c0.07,0.17,0.11,0.37,0.11,0.6V134.87z M31.45,134.17c-0.11-0.2-0.25-0.35-0.42-0.45
		c-0.17-0.1-0.38-0.15-0.62-0.15c-0.24,0-0.44,0.05-0.62,0.15c-0.17,0.1-0.31,0.25-0.42,0.45H31.45z"/>
	<path class="st2" d="M35.44,133.18v-0.21h0.82c0.17,0,0.29,0.03,0.36,0.1c0.07,0.06,0.11,0.15,0.11,0.25c0,0.1-0.04,0.19-0.11,0.25
		c-0.07,0.06-0.19,0.1-0.36,0.1h-0.12v2.55c0,0.25-0.05,0.46-0.16,0.64c-0.1,0.18-0.26,0.34-0.48,0.47c-0.21,0.13-0.46,0.2-0.72,0.2
		h-0.79c-0.17,0-0.29-0.03-0.36-0.1c-0.07-0.06-0.11-0.15-0.11-0.25c0-0.1,0.04-0.19,0.11-0.25c0.07-0.06,0.19-0.1,0.36-0.1h0.77
		c0.21,0,0.38-0.06,0.5-0.17s0.18-0.26,0.18-0.44v-0.34c-0.16,0.1-0.31,0.17-0.47,0.23c-0.16,0.05-0.33,0.08-0.49,0.08
		c-0.48,0-0.88-0.16-1.2-0.48c-0.32-0.32-0.48-0.71-0.48-1.18c0-0.47,0.16-0.86,0.48-1.18c0.32-0.32,0.72-0.48,1.2-0.48
		c0.18,0,0.35,0.03,0.51,0.08C35.14,132.99,35.29,133.07,35.44,133.18z M35.44,134.52c0-0.26-0.09-0.48-0.29-0.67
		s-0.42-0.28-0.69-0.28c-0.27,0-0.49,0.09-0.68,0.28s-0.29,0.41-0.29,0.67c0,0.26,0.1,0.48,0.29,0.67c0.19,0.19,0.42,0.28,0.68,0.28
		c0.27,0,0.5-0.09,0.69-0.28C35.34,135,35.44,134.78,35.44,134.52z"/>
	<path class="st2" d="M39.22,132.97v2.4h0.84c0.17,0,0.29,0.03,0.36,0.1c0.07,0.07,0.11,0.15,0.11,0.25c0,0.1-0.04,0.19-0.11,0.25
		c-0.07,0.07-0.19,0.1-0.36,0.1h-2.38c-0.17,0-0.29-0.03-0.36-0.1c-0.07-0.06-0.11-0.15-0.11-0.25c0-0.1,0.04-0.19,0.11-0.25
		c0.07-0.06,0.19-0.1,0.36-0.1h0.84v-1.7h-0.56c-0.17,0-0.29-0.03-0.36-0.1c-0.07-0.07-0.11-0.15-0.11-0.25
		c0-0.1,0.04-0.19,0.11-0.25c0.07-0.07,0.19-0.1,0.36-0.1H39.22z M39.12,131.64v0.74h-0.83v-0.74H39.12z"/>
	<path class="st2" d="M44.89,134.58c0,0.27-0.07,0.53-0.22,0.78c-0.15,0.25-0.37,0.45-0.67,0.6c-0.29,0.15-0.6,0.22-0.92,0.22
		c-0.32,0-0.62-0.07-0.92-0.22c-0.29-0.15-0.51-0.35-0.67-0.6c-0.15-0.25-0.23-0.52-0.23-0.79c0-0.28,0.08-0.56,0.23-0.83
		c0.16-0.27,0.38-0.48,0.67-0.64c0.29-0.15,0.59-0.23,0.91-0.23c0.32,0,0.63,0.08,0.92,0.24c0.29,0.16,0.52,0.37,0.67,0.64
		C44.82,134.02,44.89,134.29,44.89,134.58z M44.19,134.58c0-0.23-0.08-0.43-0.24-0.62c-0.22-0.26-0.51-0.38-0.87-0.38
		c-0.32,0-0.58,0.1-0.79,0.3c-0.21,0.2-0.32,0.44-0.32,0.7c0,0.22,0.11,0.42,0.32,0.61c0.21,0.19,0.48,0.29,0.79,0.29
		c0.31,0,0.58-0.09,0.79-0.29S44.19,134.8,44.19,134.58z"/>
	<path class="st2" d="M46.56,132.97v0.24c0.13-0.11,0.27-0.19,0.42-0.25c0.15-0.05,0.32-0.08,0.5-0.08c0.41,0,0.74,0.13,0.98,0.39
		c0.19,0.21,0.29,0.47,0.29,0.81v1.3c0.15,0,0.26,0.03,0.33,0.1c0.07,0.07,0.11,0.15,0.11,0.25c0,0.1-0.04,0.19-0.11,0.25
		c-0.07,0.07-0.19,0.1-0.36,0.1h-0.63c-0.17,0-0.29-0.03-0.36-0.1c-0.07-0.06-0.11-0.15-0.11-0.25c0-0.1,0.04-0.19,0.11-0.25
		c0.07-0.06,0.18-0.1,0.33-0.1v-1.32c0-0.15-0.04-0.26-0.12-0.33c-0.11-0.09-0.27-0.14-0.48-0.14c-0.16,0-0.3,0.03-0.42,0.09
		c-0.12,0.06-0.28,0.2-0.46,0.4v1.3c0.18,0,0.3,0.02,0.35,0.05c0.11,0.07,0.17,0.17,0.17,0.3c0,0.1-0.04,0.19-0.11,0.25
		c-0.07,0.07-0.19,0.1-0.36,0.1h-0.8c-0.17,0-0.29-0.03-0.36-0.1c-0.07-0.06-0.11-0.15-0.11-0.25c0-0.13,0.05-0.23,0.16-0.3
		c0.05-0.03,0.17-0.05,0.35-0.05v-1.7c-0.15,0-0.26-0.03-0.33-0.1s-0.11-0.15-0.11-0.25s0.04-0.19,0.11-0.25
		c0.07-0.07,0.19-0.1,0.36-0.1H46.56z"/>
	<path class="st2" d="M52,133.44c0,0.13-0.05,0.24-0.14,0.33s-0.22,0.13-0.39,0.13s-0.29-0.04-0.39-0.13s-0.14-0.2-0.14-0.33
		s0.05-0.24,0.14-0.33s0.22-0.13,0.39-0.13s0.29,0.04,0.39,0.13S52,133.3,52,133.44z M52.01,135.73c0,0.13-0.05,0.24-0.14,0.33
		s-0.22,0.13-0.39,0.13s-0.29-0.04-0.39-0.13s-0.14-0.2-0.14-0.33c0-0.13,0.05-0.24,0.14-0.33s0.22-0.13,0.39-0.13
		s0.29,0.04,0.39,0.13S52.01,135.6,52.01,135.73z"/>
</g>
<g>
	<path class="st2" d="M25.39,156.18v2.12h0.25c0.17,0,0.29,0.03,0.36,0.1c0.07,0.07,0.11,0.15,0.11,0.25c0,0.1-0.04,0.19-0.11,0.25
		c-0.07,0.07-0.19,0.1-0.36,0.1h-0.92c-0.17,0-0.29-0.03-0.36-0.1c-0.07-0.06-0.11-0.15-0.11-0.25c0-0.1,0.04-0.18,0.11-0.25
		c0.07-0.07,0.18-0.1,0.33-0.1v-2.74h-0.11c-0.17,0-0.29-0.03-0.36-0.1c-0.07-0.07-0.11-0.15-0.11-0.25c0-0.1,0.04-0.19,0.11-0.25
		c0.07-0.06,0.19-0.1,0.36-0.1l0.81,0l1.79,2.81v-2.11h-0.25c-0.17,0-0.29-0.03-0.36-0.1c-0.07-0.07-0.11-0.15-0.11-0.25
		c0-0.1,0.04-0.19,0.11-0.25c0.07-0.06,0.19-0.1,0.36-0.1l0.92,0c0.17,0,0.29,0.03,0.36,0.1c0.07,0.06,0.11,0.15,0.11,0.25
		c0,0.1-0.04,0.19-0.11,0.25c-0.07,0.07-0.18,0.1-0.32,0.1V159h-0.69L25.39,156.18z"/>
	<path class="st2" d="M32.29,157.5c0,0.27-0.07,0.53-0.22,0.78c-0.15,0.25-0.37,0.45-0.67,0.6c-0.29,0.15-0.6,0.22-0.92,0.22
		c-0.32,0-0.62-0.07-0.92-0.22c-0.29-0.15-0.51-0.35-0.67-0.6c-0.15-0.25-0.23-0.52-0.23-0.79c0-0.28,0.08-0.56,0.23-0.83
		c0.16-0.27,0.38-0.48,0.67-0.64c0.29-0.16,0.59-0.23,0.91-0.23c0.32,0,0.63,0.08,0.92,0.24s0.52,0.37,0.67,0.64
		C32.21,156.95,32.29,157.22,32.29,157.5z M31.59,157.51c0-0.23-0.08-0.43-0.24-0.62c-0.22-0.25-0.51-0.38-0.87-0.38
		c-0.32,0-0.58,0.1-0.79,0.3c-0.21,0.2-0.32,0.44-0.32,0.7c0,0.22,0.11,0.42,0.32,0.61c0.21,0.19,0.48,0.29,0.79,0.29
		c0.31,0,0.58-0.09,0.79-0.29S31.59,157.73,31.59,157.51z"/>
	<path class="st2" d="M34.5,156.6v1.4c0,0.15,0.03,0.25,0.09,0.3c0.1,0.08,0.27,0.11,0.51,0.11c0.36,0,0.69-0.08,0.99-0.23
		c0.12-0.06,0.21-0.09,0.27-0.09c0.09,0,0.17,0.03,0.24,0.1s0.1,0.15,0.1,0.25c0,0.09-0.04,0.17-0.11,0.24
		c-0.11,0.11-0.33,0.21-0.66,0.29c-0.33,0.09-0.61,0.14-0.83,0.14c-0.44,0-0.76-0.09-0.98-0.28c-0.22-0.19-0.33-0.42-0.33-0.69
		v-1.54h-0.25c-0.17,0-0.29-0.03-0.36-0.1c-0.07-0.07-0.11-0.15-0.11-0.25c0-0.1,0.04-0.19,0.11-0.25c0.07-0.07,0.19-0.1,0.36-0.1
		h0.25v-0.63c0-0.17,0.03-0.29,0.1-0.36c0.07-0.07,0.15-0.11,0.25-0.11c0.1,0,0.19,0.04,0.25,0.11c0.07,0.07,0.1,0.19,0.1,0.36v0.63
		h1.29c0.17,0,0.29,0.03,0.36,0.1c0.07,0.06,0.11,0.15,0.11,0.25c0,0.1-0.04,0.19-0.11,0.25c-0.07,0.06-0.19,0.1-0.36,0.1H34.5z"/>
	<path class="st2" d="M40.63,157.8h-2.88c0.07,0.18,0.2,0.33,0.39,0.44c0.19,0.11,0.44,0.17,0.75,0.17c0.26,0,0.6-0.06,1.04-0.17
		c0.18-0.05,0.3-0.07,0.37-0.07c0.09,0,0.17,0.03,0.24,0.1c0.06,0.07,0.1,0.15,0.1,0.25c0,0.09-0.03,0.17-0.1,0.23
		c-0.09,0.08-0.31,0.16-0.67,0.24c-0.35,0.08-0.69,0.12-1.02,0.12c-0.56,0-1.01-0.16-1.34-0.48c-0.34-0.32-0.5-0.71-0.5-1.17
		c0-0.49,0.18-0.89,0.54-1.2s0.78-0.46,1.26-0.46c0.28,0,0.55,0.05,0.78,0.15c0.24,0.1,0.42,0.21,0.53,0.32
		c0.16,0.17,0.3,0.38,0.41,0.63c0.07,0.17,0.11,0.37,0.11,0.6V157.8z M39.85,157.1c-0.11-0.2-0.25-0.35-0.42-0.45
		c-0.17-0.1-0.38-0.15-0.62-0.15c-0.24,0-0.44,0.05-0.62,0.15c-0.17,0.1-0.31,0.25-0.42,0.45H39.85z"/>
	<path class="st2" d="M43.83,156.71c-0.11-0.07-0.23-0.12-0.36-0.16c-0.12-0.04-0.26-0.05-0.39-0.05c-0.27,0-0.49,0.04-0.65,0.13
		c-0.07,0.04-0.11,0.08-0.11,0.13c0,0.05,0.05,0.1,0.14,0.15c0.07,0.04,0.24,0.07,0.49,0.11c0.46,0.06,0.79,0.13,0.97,0.19
		c0.24,0.08,0.42,0.21,0.55,0.38c0.13,0.17,0.2,0.34,0.2,0.53c0,0.25-0.11,0.46-0.33,0.63c-0.32,0.24-0.73,0.37-1.23,0.37
		c-0.2,0-0.39-0.02-0.56-0.05c-0.17-0.04-0.33-0.09-0.47-0.16c-0.03,0.03-0.07,0.05-0.11,0.07c-0.04,0.02-0.08,0.02-0.12,0.02
		c-0.11,0-0.2-0.04-0.26-0.11c-0.06-0.07-0.1-0.19-0.1-0.36v-0.24c0-0.17,0.03-0.29,0.1-0.36c0.07-0.07,0.15-0.11,0.25-0.11
		c0.08,0,0.16,0.02,0.21,0.07s0.1,0.13,0.13,0.24c0.11,0.09,0.24,0.16,0.39,0.21c0.15,0.05,0.32,0.07,0.52,0.07
		c0.32,0,0.57-0.05,0.75-0.15c0.08-0.05,0.13-0.1,0.13-0.16c0-0.09-0.06-0.17-0.18-0.23c-0.12-0.06-0.37-0.11-0.75-0.15
		c-0.56-0.06-0.94-0.17-1.13-0.34c-0.19-0.17-0.28-0.37-0.28-0.62c0-0.25,0.11-0.46,0.32-0.62c0.29-0.23,0.66-0.34,1.13-0.34
		c0.16,0,0.32,0.01,0.47,0.05c0.15,0.03,0.29,0.08,0.43,0.14c0.04-0.03,0.08-0.06,0.12-0.07c0.04-0.02,0.07-0.02,0.1-0.02
		c0.1,0,0.18,0.04,0.24,0.11c0.06,0.07,0.1,0.19,0.1,0.36v0.17c0,0.15-0.02,0.26-0.05,0.31c-0.07,0.11-0.17,0.16-0.3,0.16
		c-0.08,0-0.16-0.03-0.22-0.08C43.89,156.87,43.85,156.8,43.83,156.71z"/>
	<path class="st2" d="M47.8,156.36c0,0.13-0.05,0.24-0.14,0.33s-0.22,0.13-0.39,0.13s-0.29-0.04-0.39-0.13s-0.14-0.2-0.14-0.33
		c0-0.13,0.05-0.24,0.14-0.33s0.22-0.13,0.39-0.13s0.29,0.04,0.39,0.13S47.8,156.23,47.8,156.36z M47.81,158.66
		c0,0.13-0.05,0.24-0.14,0.33s-0.22,0.13-0.39,0.13s-0.29-0.04-0.39-0.13s-0.14-0.2-0.14-0.33c0-0.13,0.05-0.24,0.14-0.33
		s0.22-0.13,0.39-0.13s0.29,0.04,0.39,0.13S47.81,158.52,47.81,158.66z"/>
</g>
<g>
	<path class="st2" d="M24.84,101.72v-2.74h-0.11c-0.17,0-0.29-0.03-0.36-0.1c-0.07-0.07-0.11-0.15-0.11-0.25s0.04-0.19,0.11-0.25
		c0.07-0.06,0.19-0.1,0.36-0.1h1.76c0.42,0,0.76,0.12,1.01,0.35c0.25,0.23,0.38,0.51,0.38,0.83c0,0.15-0.03,0.3-0.09,0.43
		s-0.15,0.26-0.27,0.37c0.22,0.13,0.39,0.29,0.5,0.46c0.11,0.18,0.17,0.38,0.17,0.6c0,0.18-0.04,0.34-0.12,0.5
		c-0.06,0.12-0.13,0.21-0.22,0.28c-0.12,0.1-0.26,0.17-0.43,0.23c-0.17,0.06-0.38,0.09-0.63,0.09h-2.06c-0.17,0-0.29-0.03-0.36-0.1
		c-0.07-0.06-0.11-0.15-0.11-0.25c0-0.1,0.04-0.19,0.11-0.25c0.07-0.06,0.19-0.1,0.36-0.1H24.84z M25.54,100h0.77
		c0.28,0,0.5-0.07,0.69-0.21c0.12-0.09,0.19-0.21,0.19-0.35c0-0.12-0.06-0.23-0.17-0.32c-0.12-0.09-0.3-0.14-0.55-0.14h-0.91V100z
		 M25.54,101.72h1.21c0.29,0,0.49-0.04,0.6-0.13c0.09-0.06,0.13-0.15,0.13-0.27c0-0.14-0.09-0.28-0.26-0.42
		c-0.18-0.14-0.43-0.21-0.76-0.21h-0.93V101.72z"/>
	<path class="st2" d="M30.32,99.32v0.44c0.29-0.21,0.53-0.35,0.7-0.42s0.33-0.11,0.48-0.11c0.23,0,0.45,0.08,0.66,0.25
		c0.15,0.11,0.22,0.23,0.22,0.35c0,0.1-0.04,0.19-0.1,0.25c-0.07,0.07-0.15,0.1-0.25,0.1c-0.09,0-0.18-0.04-0.27-0.13
		s-0.18-0.13-0.26-0.13c-0.1,0-0.24,0.06-0.44,0.18c-0.19,0.12-0.44,0.31-0.73,0.55v1.06h1c0.17,0,0.29,0.03,0.36,0.1
		c0.07,0.07,0.11,0.15,0.11,0.25c0,0.1-0.04,0.19-0.11,0.25c-0.07,0.07-0.19,0.1-0.36,0.1h-2.12c-0.17,0-0.29-0.03-0.36-0.1
		c-0.07-0.06-0.11-0.15-0.11-0.25c0-0.1,0.04-0.19,0.11-0.25c0.07-0.06,0.19-0.1,0.36-0.1h0.42v-1.7h-0.25
		c-0.17,0-0.29-0.03-0.36-0.1c-0.07-0.07-0.11-0.15-0.11-0.25c0-0.1,0.04-0.19,0.11-0.25c0.07-0.07,0.19-0.1,0.36-0.1H30.32z"/>
	<path class="st2" d="M36.43,101.23h-2.88c0.07,0.18,0.2,0.33,0.39,0.44s0.44,0.17,0.75,0.17c0.26,0,0.6-0.06,1.04-0.17
		c0.18-0.05,0.3-0.07,0.37-0.07c0.09,0,0.17,0.03,0.24,0.1s0.1,0.15,0.1,0.25c0,0.09-0.03,0.17-0.1,0.23
		c-0.09,0.08-0.31,0.16-0.67,0.24c-0.35,0.08-0.69,0.11-1.02,0.11c-0.56,0-1.01-0.16-1.34-0.48s-0.5-0.71-0.5-1.17
		c0-0.49,0.18-0.89,0.54-1.2c0.36-0.31,0.78-0.46,1.26-0.46c0.28,0,0.55,0.05,0.78,0.15s0.42,0.21,0.53,0.32
		c0.16,0.17,0.3,0.38,0.41,0.63c0.07,0.17,0.11,0.37,0.11,0.6V101.23z M35.65,100.53c-0.11-0.2-0.25-0.35-0.42-0.45
		c-0.17-0.1-0.38-0.15-0.62-0.15c-0.24,0-0.44,0.05-0.62,0.15c-0.17,0.1-0.31,0.25-0.42,0.45H35.65z"/>
	<path class="st2" d="M38.87,101.13l-0.49,1.29h-0.66l-0.59-2.4c-0.13-0.01-0.22-0.04-0.29-0.11c-0.07-0.06-0.1-0.15-0.1-0.24
		c0-0.1,0.04-0.19,0.11-0.25c0.07-0.07,0.19-0.1,0.36-0.1h0.65c0.17,0,0.29,0.03,0.36,0.1c0.07,0.06,0.11,0.15,0.11,0.25
		s-0.04,0.19-0.12,0.27c-0.06,0.05-0.18,0.08-0.36,0.08l0.27,1.11l0.43-1.14h0.62l0.44,1.14l0.27-1.11c-0.17,0-0.29-0.02-0.34-0.05
		c-0.11-0.07-0.16-0.17-0.16-0.3c0-0.1,0.04-0.19,0.11-0.25c0.07-0.07,0.19-0.1,0.36-0.1h0.66c0.17,0,0.29,0.03,0.36,0.1
		c0.07,0.06,0.11,0.15,0.11,0.25c0,0.09-0.03,0.17-0.09,0.24c-0.06,0.06-0.16,0.1-0.28,0.11l-0.57,2.4h-0.65L38.87,101.13z"/>
	<path class="st2" d="M43.42,99.32v2.4h0.84c0.17,0,0.29,0.03,0.36,0.1c0.07,0.07,0.11,0.15,0.11,0.25c0,0.1-0.04,0.19-0.11,0.25
		c-0.07,0.07-0.19,0.1-0.36,0.1h-2.38c-0.17,0-0.29-0.03-0.36-0.1c-0.07-0.06-0.11-0.15-0.11-0.25c0-0.1,0.04-0.19,0.11-0.25
		c0.07-0.06,0.19-0.1,0.36-0.1h0.84v-1.7h-0.56c-0.17,0-0.29-0.03-0.36-0.1c-0.07-0.07-0.11-0.15-0.11-0.25
		c0-0.1,0.04-0.19,0.11-0.25c0.07-0.07,0.19-0.1,0.36-0.1H43.42z M43.32,97.99v0.74h-0.83v-0.74H43.32z"/>
	<path class="st2" d="M46.56,99.32v0.24c0.13-0.11,0.27-0.19,0.42-0.25c0.15-0.05,0.32-0.08,0.5-0.08c0.41,0,0.74,0.13,0.98,0.39
		c0.19,0.21,0.29,0.47,0.29,0.81v1.3c0.15,0,0.26,0.03,0.33,0.1c0.07,0.07,0.11,0.15,0.11,0.25c0,0.1-0.04,0.19-0.11,0.25
		c-0.07,0.07-0.19,0.1-0.36,0.1h-0.63c-0.17,0-0.29-0.03-0.36-0.1c-0.07-0.06-0.11-0.15-0.11-0.25c0-0.1,0.04-0.19,0.11-0.25
		c0.07-0.06,0.18-0.1,0.33-0.1v-1.32c0-0.15-0.04-0.26-0.12-0.33c-0.11-0.09-0.27-0.14-0.48-0.14c-0.16,0-0.3,0.03-0.42,0.09
		c-0.12,0.06-0.28,0.2-0.46,0.4v1.3c0.18,0,0.3,0.02,0.35,0.05c0.11,0.07,0.17,0.17,0.17,0.3c0,0.1-0.04,0.19-0.11,0.25
		c-0.07,0.07-0.19,0.1-0.36,0.1h-0.8c-0.17,0-0.29-0.03-0.36-0.1c-0.07-0.06-0.11-0.15-0.11-0.25c0-0.13,0.05-0.23,0.16-0.3
		c0.05-0.03,0.17-0.05,0.35-0.05v-1.7c-0.15,0-0.26-0.03-0.33-0.1s-0.11-0.15-0.11-0.25s0.04-0.19,0.11-0.25
		c0.07-0.07,0.19-0.1,0.36-0.1H46.56z"/>
	<path class="st2" d="M52.24,99.53v-0.21h0.82c0.17,0,0.29,0.03,0.36,0.1c0.07,0.06,0.11,0.15,0.11,0.25c0,0.1-0.04,0.19-0.11,0.25
		c-0.07,0.06-0.19,0.1-0.36,0.1h-0.12v2.55c0,0.25-0.05,0.46-0.16,0.64c-0.1,0.18-0.26,0.34-0.48,0.47s-0.46,0.2-0.72,0.2h-0.79
		c-0.17,0-0.29-0.03-0.36-0.1c-0.07-0.06-0.11-0.15-0.11-0.25c0-0.1,0.04-0.19,0.11-0.25c0.07-0.06,0.19-0.1,0.36-0.1h0.77
		c0.21,0,0.38-0.06,0.5-0.17s0.18-0.26,0.18-0.44v-0.34c-0.16,0.1-0.31,0.18-0.47,0.23c-0.16,0.05-0.33,0.08-0.49,0.08
		c-0.48,0-0.88-0.16-1.2-0.48c-0.32-0.32-0.48-0.71-0.48-1.18c0-0.47,0.16-0.86,0.48-1.18c0.32-0.32,0.72-0.48,1.2-0.48
		c0.18,0,0.35,0.03,0.51,0.08C51.94,99.34,52.1,99.42,52.24,99.53z M52.24,100.87c0-0.26-0.09-0.48-0.29-0.67s-0.42-0.28-0.69-0.28
		c-0.27,0-0.49,0.09-0.68,0.28s-0.29,0.41-0.29,0.67c0,0.26,0.1,0.48,0.29,0.67c0.19,0.19,0.42,0.28,0.68,0.28
		c0.27,0,0.5-0.09,0.69-0.28C52.14,101.35,52.24,101.13,52.24,100.87z"/>
	<path class="st2" d="M58.78,99.63v2.09h0.25c0.17,0,0.29,0.03,0.36,0.1c0.07,0.07,0.11,0.15,0.11,0.25c0,0.1-0.04,0.19-0.11,0.25
		c-0.07,0.07-0.19,0.1-0.36,0.1h-0.92c-0.17,0-0.29-0.03-0.36-0.1c-0.07-0.06-0.11-0.15-0.11-0.25c0-0.1,0.04-0.19,0.11-0.25
		c0.07-0.06,0.18-0.1,0.33-0.1v-2.74c-0.12-0.01-0.22-0.05-0.28-0.11s-0.09-0.14-0.09-0.24c0-0.1,0.04-0.19,0.11-0.25
		c0.07-0.06,0.19-0.1,0.36-0.1l0.77,0l0.95,2.11l0.94-2.11l0.78,0c0.17,0,0.29,0.03,0.36,0.1c0.07,0.06,0.11,0.15,0.11,0.25
		c0,0.1-0.03,0.18-0.1,0.24c-0.06,0.06-0.16,0.1-0.28,0.11v2.74c0.15,0,0.26,0.03,0.33,0.1s0.11,0.15,0.11,0.25
		s-0.04,0.19-0.11,0.25c-0.07,0.07-0.19,0.1-0.36,0.1h-0.92c-0.17,0-0.29-0.03-0.36-0.1c-0.07-0.06-0.11-0.15-0.11-0.25
		c0-0.1,0.04-0.19,0.11-0.25c0.07-0.06,0.19-0.1,0.36-0.1H61v-2.09l-0.8,1.8h-0.61L58.78,99.63z"/>
	<path class="st2" d="M65.83,101.23h-2.88c0.07,0.18,0.2,0.33,0.39,0.44s0.44,0.17,0.75,0.17c0.26,0,0.6-0.06,1.04-0.17
		c0.18-0.05,0.3-0.07,0.37-0.07c0.09,0,0.17,0.03,0.24,0.1s0.1,0.15,0.1,0.25c0,0.09-0.03,0.17-0.1,0.23
		c-0.09,0.08-0.31,0.16-0.67,0.24c-0.35,0.08-0.69,0.11-1.02,0.11c-0.56,0-1.01-0.16-1.34-0.48s-0.5-0.71-0.5-1.17
		c0-0.49,0.18-0.89,0.54-1.2c0.36-0.31,0.78-0.46,1.26-0.46c0.28,0,0.55,0.05,0.78,0.15s0.42,0.21,0.53,0.32
		c0.16,0.17,0.3,0.38,0.41,0.63c0.07,0.17,0.11,0.37,0.11,0.6V101.23z M65.06,100.53c-0.11-0.2-0.25-0.35-0.42-0.45
		c-0.17-0.1-0.38-0.15-0.62-0.15c-0.24,0-0.44,0.05-0.62,0.15c-0.17,0.1-0.31,0.25-0.42,0.45H65.06z"/>
	<path class="st2" d="M68.1,100.02v1.4c0,0.15,0.03,0.25,0.09,0.3c0.1,0.08,0.27,0.11,0.51,0.11c0.36,0,0.69-0.08,0.99-0.23
		c0.12-0.06,0.21-0.09,0.27-0.09c0.09,0,0.17,0.03,0.24,0.1s0.1,0.15,0.1,0.25c0,0.09-0.04,0.17-0.11,0.24
		c-0.11,0.11-0.33,0.21-0.66,0.3c-0.33,0.09-0.61,0.14-0.83,0.14c-0.44,0-0.76-0.09-0.98-0.28c-0.22-0.19-0.33-0.42-0.33-0.69v-1.54
		h-0.25c-0.17,0-0.29-0.03-0.36-0.1c-0.07-0.07-0.11-0.15-0.11-0.25c0-0.1,0.04-0.19,0.11-0.25c0.07-0.07,0.19-0.1,0.36-0.1h0.25
		v-0.63c0-0.17,0.03-0.29,0.1-0.36c0.07-0.07,0.15-0.11,0.25-0.11c0.1,0,0.19,0.04,0.25,0.11c0.07,0.07,0.1,0.19,0.1,0.36v0.63h1.29
		c0.17,0,0.29,0.03,0.36,0.1c0.07,0.06,0.11,0.15,0.11,0.25c0,0.1-0.04,0.19-0.11,0.25c-0.07,0.06-0.19,0.1-0.36,0.1H68.1z"/>
	<path class="st2" d="M71.75,97.99v1.49c0.15-0.09,0.29-0.15,0.44-0.19c0.15-0.04,0.3-0.06,0.45-0.06c0.24,0,0.46,0.04,0.65,0.12
		s0.35,0.21,0.47,0.39c0.12,0.18,0.19,0.4,0.19,0.67v1.32c0.18,0,0.29,0.02,0.35,0.05c0.11,0.07,0.16,0.17,0.16,0.3
		c0,0.1-0.04,0.19-0.11,0.25c-0.07,0.07-0.19,0.1-0.36,0.1h-0.8c-0.17,0-0.29-0.03-0.36-0.1c-0.07-0.06-0.11-0.15-0.11-0.25
		c0-0.13,0.05-0.23,0.16-0.3c0.06-0.04,0.17-0.05,0.35-0.05v-1.27c0-0.18-0.04-0.31-0.12-0.38c-0.11-0.1-0.27-0.15-0.47-0.15
		c-0.16,0-0.29,0.03-0.41,0.09c-0.12,0.06-0.28,0.19-0.48,0.39v1.31c0.18,0,0.3,0.02,0.35,0.05c0.11,0.07,0.17,0.17,0.17,0.3
		c0,0.1-0.04,0.19-0.11,0.25c-0.07,0.07-0.19,0.1-0.36,0.1H71c-0.17,0-0.29-0.03-0.36-0.1c-0.07-0.06-0.11-0.15-0.11-0.25
		c0-0.13,0.06-0.23,0.17-0.3c0.05-0.04,0.17-0.05,0.35-0.05v-3.03h-0.12c-0.17,0-0.29-0.03-0.36-0.1c-0.07-0.06-0.11-0.15-0.11-0.25
		c0-0.1,0.04-0.19,0.11-0.25c0.07-0.06,0.19-0.1,0.36-0.1H71.75z"/>
	<path class="st2" d="M78.5,100.93c0,0.27-0.07,0.53-0.22,0.78c-0.15,0.25-0.37,0.45-0.67,0.6c-0.29,0.15-0.6,0.22-0.92,0.22
		c-0.32,0-0.62-0.07-0.92-0.22c-0.29-0.15-0.51-0.35-0.67-0.6c-0.15-0.25-0.23-0.52-0.23-0.79c0-0.28,0.08-0.56,0.23-0.83
		c0.16-0.27,0.38-0.48,0.67-0.64c0.29-0.15,0.59-0.23,0.91-0.23c0.32,0,0.63,0.08,0.92,0.24c0.29,0.16,0.52,0.37,0.67,0.64
		C78.42,100.37,78.5,100.65,78.5,100.93z M77.79,100.93c0-0.23-0.08-0.43-0.24-0.62c-0.22-0.26-0.51-0.38-0.87-0.38
		c-0.32,0-0.58,0.1-0.79,0.3s-0.32,0.44-0.32,0.7c0,0.22,0.11,0.42,0.32,0.61c0.21,0.19,0.48,0.29,0.79,0.29
		c0.31,0,0.58-0.1,0.79-0.29C77.69,101.36,77.79,101.15,77.79,100.93z"/>
	<path class="st2" d="M82.49,97.99v3.73h0.12c0.17,0,0.29,0.03,0.36,0.1c0.07,0.07,0.11,0.15,0.11,0.25c0,0.1-0.04,0.19-0.11,0.25
		c-0.07,0.07-0.19,0.1-0.36,0.1h-0.82v-0.17c-0.16,0.09-0.33,0.16-0.5,0.21c-0.17,0.05-0.35,0.07-0.54,0.07
		c-0.53,0-0.95-0.15-1.27-0.46c-0.32-0.3-0.48-0.68-0.48-1.14c0-0.47,0.17-0.88,0.51-1.21s0.75-0.5,1.23-0.5
		c0.18,0,0.36,0.03,0.54,0.08c0.18,0.06,0.35,0.14,0.52,0.25v-0.87h-0.12c-0.17,0-0.29-0.03-0.36-0.1
		c-0.07-0.06-0.11-0.15-0.11-0.25c0-0.1,0.04-0.19,0.11-0.25c0.07-0.06,0.19-0.1,0.36-0.1H82.49z M81.78,100.96
		c0-0.29-0.1-0.53-0.3-0.73c-0.2-0.2-0.45-0.3-0.74-0.3c-0.29,0-0.54,0.1-0.74,0.3s-0.3,0.44-0.3,0.72c0,0.26,0.09,0.47,0.27,0.63
		c0.18,0.17,0.44,0.25,0.77,0.25c0.33,0,0.59-0.08,0.77-0.25C81.69,101.42,81.78,101.21,81.78,100.96z"/>
	<path class="st2" d="M85.83,100.14c-0.11-0.07-0.23-0.12-0.36-0.16c-0.12-0.04-0.26-0.05-0.39-0.05c-0.27,0-0.49,0.04-0.65,0.13
		c-0.07,0.04-0.11,0.08-0.11,0.13c0,0.05,0.05,0.1,0.14,0.15c0.07,0.04,0.24,0.07,0.49,0.11c0.46,0.06,0.79,0.13,0.97,0.19
		c0.24,0.08,0.42,0.21,0.55,0.38c0.13,0.17,0.2,0.34,0.2,0.53c0,0.25-0.11,0.46-0.33,0.63c-0.32,0.24-0.73,0.37-1.23,0.37
		c-0.2,0-0.39-0.02-0.56-0.05c-0.17-0.04-0.33-0.09-0.47-0.16c-0.03,0.03-0.07,0.05-0.11,0.07c-0.04,0.02-0.08,0.02-0.12,0.02
		c-0.11,0-0.2-0.04-0.26-0.11c-0.06-0.07-0.1-0.19-0.1-0.36v-0.24c0-0.17,0.03-0.29,0.1-0.36c0.07-0.07,0.15-0.11,0.25-0.11
		c0.08,0,0.16,0.02,0.21,0.07c0.06,0.05,0.1,0.13,0.13,0.24c0.11,0.09,0.24,0.16,0.39,0.21c0.15,0.05,0.32,0.07,0.52,0.07
		c0.32,0,0.57-0.05,0.75-0.15c0.08-0.05,0.13-0.1,0.13-0.16c0-0.09-0.06-0.17-0.18-0.23c-0.12-0.06-0.37-0.11-0.75-0.15
		c-0.56-0.06-0.94-0.17-1.13-0.34c-0.19-0.17-0.28-0.37-0.28-0.62c0-0.25,0.11-0.46,0.32-0.63c0.29-0.23,0.66-0.34,1.13-0.34
		c0.16,0,0.32,0.02,0.47,0.05c0.15,0.03,0.29,0.08,0.43,0.14c0.04-0.03,0.08-0.06,0.12-0.07c0.04-0.02,0.07-0.02,0.1-0.02
		c0.1,0,0.18,0.04,0.24,0.11c0.06,0.07,0.1,0.19,0.1,0.36v0.17c0,0.15-0.02,0.26-0.05,0.31c-0.07,0.1-0.17,0.16-0.3,0.16
		c-0.08,0-0.16-0.03-0.22-0.08S85.85,100.23,85.83,100.14z"/>
	<path class="st2" d="M89.81,99.79c0,0.13-0.05,0.24-0.14,0.33s-0.22,0.13-0.39,0.13s-0.29-0.04-0.39-0.13s-0.14-0.2-0.14-0.33
		s0.05-0.24,0.14-0.33s0.22-0.13,0.39-0.13s0.29,0.04,0.39,0.13S89.81,99.66,89.81,99.79z M89.81,102.08c0,0.13-0.05,0.24-0.14,0.33
		s-0.22,0.13-0.39,0.13s-0.29-0.04-0.39-0.13s-0.14-0.2-0.14-0.33s0.05-0.24,0.14-0.33s0.22-0.13,0.39-0.13s0.29,0.04,0.39,0.13
		S89.81,101.95,89.81,102.08z"/>
</g>
<g>
	<path class="st3" d="M140.52,242.35c-0.3,0.87-0.94,1.46-1.68,1.96c-0.89,0.6-1.83,1.07-2.9,1.23c-0.71,0.11-1.4,0.04-2.08-0.18
		c-0.29-0.09-0.42-0.28-0.39-0.58c0.02-0.18,0.07-0.36,0.13-0.53c0.33-0.99,0.93-1.77,1.85-2.28c1.08-0.6,1.82-1.48,2.31-2.6
		c0.03-0.07,0.06-0.15,0.09-0.22c0.34-0.74,1.12-0.95,1.78-0.47c0.4,0.3,0.66,0.71,0.84,1.18c0.02,0.05,0.04,0.11,0.06,0.16
		C140.52,240.8,140.52,241.57,140.52,242.35z"/>
	<path class="st3" d="M131.89,242.12c-0.05-0.59,0.15-1.13,0.44-1.64c0.25-0.43,0.49-0.87,0.72-1.31c0.55-1.08,1.49-1.63,2.61-1.93
		c0.15-0.04,0.31-0.08,0.46-0.09c0.83-0.07,1.32,0.5,1.16,1.31c-0.11,0.57-0.35,1.09-0.56,1.62c-0.3,0.75-0.84,1.23-1.56,1.56
		c-0.34,0.16-0.67,0.36-0.97,0.57c-0.61,0.43-1.03,1.02-1.25,1.75c-0.01,0.05-0.03,0.1-0.06,0.15c-0.07,0.12-0.16,0.14-0.27,0.05
		c-0.04-0.03-0.07-0.07-0.09-0.1C132.11,243.48,131.84,242.86,131.89,242.12z"/>
</g>
<g>
	<path class="st1" d="M27.07,241.03c0.08-0.08,0.17-0.12,0.26-0.12c0.1,0,0.18,0.04,0.25,0.11c0.06,0.07,0.1,0.19,0.1,0.36v0.45
		c0,0.17-0.03,0.29-0.1,0.36c-0.07,0.07-0.15,0.11-0.25,0.11c-0.1,0-0.18-0.03-0.24-0.08c-0.05-0.04-0.09-0.12-0.11-0.25
		c-0.03-0.13-0.09-0.22-0.2-0.28c-0.18-0.11-0.42-0.16-0.71-0.16c-0.33,0-0.59,0.1-0.79,0.29c-0.2,0.19-0.3,0.44-0.3,0.74
		c0,0.27,0.1,0.49,0.29,0.65s0.51,0.24,0.95,0.24c0.29,0,0.53-0.03,0.71-0.09c0.11-0.04,0.21-0.1,0.31-0.19
		c0.1-0.09,0.19-0.13,0.27-0.13c0.1,0,0.18,0.04,0.25,0.11c0.07,0.07,0.1,0.15,0.1,0.25c0,0.15-0.11,0.3-0.32,0.44
		c-0.31,0.21-0.77,0.31-1.38,0.31c-0.54,0-0.97-0.11-1.27-0.34c-0.41-0.3-0.62-0.72-0.62-1.24c0-0.5,0.17-0.91,0.5-1.24
		c0.33-0.33,0.77-0.49,1.3-0.49c0.19,0,0.37,0.02,0.54,0.05C26.78,240.9,26.93,240.96,27.07,241.03z"/>
	<path class="st1" d="M30.81,244.01v-0.16c-0.17,0.09-0.37,0.16-0.58,0.21c-0.21,0.05-0.41,0.07-0.58,0.07
		c-0.38,0-0.68-0.1-0.92-0.3c-0.23-0.2-0.35-0.42-0.35-0.66c0-0.29,0.15-0.57,0.45-0.82s0.71-0.38,1.24-0.38
		c0.21,0,0.46,0.02,0.73,0.07v-0.17c0-0.11-0.04-0.19-0.13-0.26c-0.09-0.07-0.26-0.1-0.51-0.1c-0.21,0-0.48,0.04-0.81,0.12
		c-0.12,0.03-0.22,0.04-0.29,0.04c-0.09,0-0.17-0.03-0.24-0.1c-0.06-0.07-0.1-0.15-0.1-0.26c0-0.06,0.01-0.11,0.04-0.15
		c0.02-0.04,0.05-0.08,0.1-0.1c0.04-0.03,0.13-0.06,0.26-0.09c0.17-0.05,0.35-0.09,0.53-0.11c0.18-0.03,0.34-0.04,0.49-0.04
		c0.44,0,0.77,0.09,1.01,0.28c0.24,0.19,0.36,0.45,0.36,0.77v1.44h0.12c0.17,0,0.29,0.03,0.36,0.1c0.07,0.07,0.11,0.15,0.11,0.25
		c0,0.1-0.04,0.19-0.11,0.25c-0.07,0.07-0.19,0.1-0.36,0.1H30.81z M30.81,242.75c-0.28-0.05-0.54-0.08-0.78-0.08
		c-0.29,0-0.53,0.07-0.73,0.21c-0.13,0.09-0.19,0.18-0.19,0.27c0,0.07,0.03,0.12,0.09,0.16c0.11,0.08,0.27,0.11,0.47,0.11
		c0.17,0,0.36-0.03,0.57-0.1c0.21-0.07,0.4-0.16,0.57-0.27V242.75z"/>
	<path class="st1" d="M35.14,241.73c-0.11-0.07-0.23-0.12-0.36-0.16c-0.12-0.04-0.26-0.05-0.39-0.05c-0.27,0-0.49,0.04-0.65,0.13
		c-0.07,0.04-0.11,0.08-0.11,0.13c0,0.05,0.05,0.1,0.14,0.15c0.07,0.04,0.24,0.07,0.49,0.11c0.46,0.06,0.79,0.13,0.97,0.19
		c0.24,0.08,0.42,0.21,0.55,0.38c0.13,0.17,0.2,0.34,0.2,0.53c0,0.25-0.11,0.46-0.33,0.63c-0.32,0.24-0.73,0.37-1.23,0.37
		c-0.2,0-0.39-0.02-0.56-0.05s-0.33-0.09-0.47-0.16c-0.03,0.03-0.07,0.05-0.11,0.07C33.24,244,33.2,244,33.16,244
		c-0.11,0-0.2-0.04-0.26-0.11c-0.06-0.07-0.1-0.19-0.1-0.36v-0.24c0-0.17,0.03-0.29,0.1-0.36c0.07-0.07,0.15-0.11,0.25-0.11
		c0.08,0,0.16,0.02,0.21,0.07c0.06,0.05,0.1,0.13,0.13,0.24c0.11,0.09,0.24,0.16,0.39,0.21s0.32,0.07,0.52,0.07
		c0.32,0,0.57-0.05,0.75-0.15c0.08-0.05,0.13-0.1,0.13-0.16c0-0.09-0.06-0.17-0.18-0.23c-0.12-0.06-0.37-0.11-0.75-0.15
		c-0.56-0.06-0.94-0.17-1.13-0.34c-0.19-0.17-0.28-0.37-0.28-0.62c0-0.25,0.11-0.46,0.32-0.63c0.29-0.23,0.66-0.34,1.13-0.34
		c0.16,0,0.32,0.02,0.47,0.05c0.15,0.03,0.29,0.08,0.43,0.14c0.04-0.03,0.08-0.06,0.12-0.07c0.04-0.02,0.07-0.02,0.1-0.02
		c0.1,0,0.18,0.04,0.24,0.11c0.06,0.07,0.1,0.19,0.1,0.36v0.17c0,0.15-0.02,0.26-0.05,0.31c-0.07,0.1-0.17,0.16-0.3,0.16
		c-0.08,0-0.16-0.03-0.22-0.08C35.2,241.88,35.16,241.81,35.14,241.73z"/>
	<path class="st1" d="M39.34,241.73c-0.11-0.07-0.23-0.12-0.36-0.16c-0.12-0.04-0.26-0.05-0.39-0.05c-0.27,0-0.49,0.04-0.65,0.13
		c-0.07,0.04-0.11,0.08-0.11,0.13c0,0.05,0.05,0.1,0.14,0.15c0.07,0.04,0.24,0.07,0.49,0.11c0.46,0.06,0.79,0.13,0.97,0.19
		c0.24,0.08,0.42,0.21,0.55,0.38c0.13,0.17,0.2,0.34,0.2,0.53c0,0.25-0.11,0.46-0.33,0.63c-0.32,0.24-0.73,0.37-1.23,0.37
		c-0.2,0-0.39-0.02-0.56-0.05s-0.33-0.09-0.47-0.16c-0.03,0.03-0.07,0.05-0.11,0.07C37.44,244,37.4,244,37.36,244
		c-0.11,0-0.2-0.04-0.26-0.11c-0.06-0.07-0.1-0.19-0.1-0.36v-0.24c0-0.17,0.03-0.29,0.1-0.36c0.07-0.07,0.15-0.11,0.25-0.11
		c0.08,0,0.16,0.02,0.21,0.07c0.06,0.05,0.1,0.13,0.13,0.24c0.11,0.09,0.24,0.16,0.39,0.21s0.32,0.07,0.52,0.07
		c0.32,0,0.57-0.05,0.75-0.15c0.08-0.05,0.13-0.1,0.13-0.16c0-0.09-0.06-0.17-0.18-0.23c-0.12-0.06-0.37-0.11-0.75-0.15
		c-0.56-0.06-0.94-0.17-1.13-0.34c-0.19-0.17-0.28-0.37-0.28-0.62c0-0.25,0.11-0.46,0.32-0.63c0.29-0.23,0.66-0.34,1.13-0.34
		c0.16,0,0.32,0.02,0.47,0.05c0.15,0.03,0.29,0.08,0.43,0.14c0.04-0.03,0.08-0.06,0.12-0.07c0.04-0.02,0.07-0.02,0.1-0.02
		c0.1,0,0.18,0.04,0.24,0.11c0.06,0.07,0.1,0.19,0.1,0.36v0.17c0,0.15-0.02,0.26-0.05,0.31c-0.07,0.1-0.17,0.16-0.3,0.16
		c-0.08,0-0.16-0.03-0.22-0.08C39.4,241.88,39.36,241.81,39.34,241.73z"/>
	<path class="st1" d="M43.13,240.91v2.4h0.84c0.17,0,0.29,0.03,0.36,0.1c0.07,0.07,0.11,0.15,0.11,0.25c0,0.1-0.04,0.19-0.11,0.25
		c-0.07,0.07-0.19,0.1-0.36,0.1h-2.38c-0.17,0-0.29-0.03-0.36-0.1c-0.07-0.06-0.11-0.15-0.11-0.25c0-0.1,0.04-0.19,0.11-0.25
		c0.07-0.06,0.19-0.1,0.36-0.1h0.84v-1.7h-0.56c-0.17,0-0.29-0.03-0.36-0.1c-0.07-0.07-0.11-0.15-0.11-0.25
		c0-0.1,0.04-0.19,0.11-0.25c0.07-0.07,0.19-0.1,0.36-0.1H43.13z M43.04,239.58v0.74H42.2v-0.74H43.04z"/>
	<path class="st1" d="M48.81,242.51c0,0.27-0.07,0.53-0.22,0.78s-0.37,0.45-0.67,0.6s-0.6,0.22-0.92,0.22
		c-0.32,0-0.62-0.07-0.92-0.22c-0.29-0.15-0.51-0.35-0.67-0.6c-0.15-0.25-0.23-0.52-0.23-0.79c0-0.28,0.08-0.55,0.23-0.83
		c0.16-0.27,0.38-0.48,0.67-0.64c0.29-0.15,0.59-0.23,0.91-0.23c0.32,0,0.63,0.08,0.92,0.24c0.29,0.16,0.52,0.37,0.67,0.64
		S48.81,242.23,48.81,242.51z M48.1,242.52c0-0.23-0.08-0.43-0.24-0.62c-0.22-0.26-0.51-0.38-0.87-0.38c-0.32,0-0.58,0.1-0.79,0.3
		c-0.21,0.2-0.32,0.44-0.32,0.7c0,0.22,0.11,0.42,0.32,0.61c0.21,0.19,0.48,0.29,0.79,0.29c0.31,0,0.58-0.1,0.79-0.29
		C48,242.95,48.1,242.74,48.1,242.52z"/>
	<path class="st1" d="M50.32,243.62v1.15h0.42c0.17,0,0.29,0.03,0.36,0.1c0.07,0.07,0.11,0.15,0.11,0.25c0,0.1-0.04,0.19-0.11,0.25
		c-0.07,0.07-0.19,0.1-0.36,0.1H49.5c-0.17,0-0.29-0.03-0.36-0.1c-0.07-0.06-0.11-0.15-0.11-0.25c0-0.11,0.04-0.19,0.11-0.25
		c0.07-0.06,0.19-0.1,0.36-0.1h0.12v-3.17H49.5c-0.17,0-0.29-0.03-0.36-0.1c-0.07-0.07-0.11-0.15-0.11-0.25
		c0-0.1,0.04-0.19,0.11-0.25c0.07-0.07,0.19-0.1,0.36-0.1h0.82v0.24c0.16-0.11,0.33-0.2,0.51-0.25c0.17-0.05,0.36-0.08,0.54-0.08
		c0.48,0,0.89,0.16,1.22,0.49c0.34,0.33,0.51,0.7,0.51,1.12c0,0.46-0.2,0.84-0.6,1.14c-0.33,0.25-0.71,0.38-1.12,0.38
		c-0.18,0-0.36-0.03-0.53-0.08C50.66,243.81,50.49,243.73,50.32,243.62z M52.39,242.42c0-0.1-0.04-0.22-0.12-0.37
		s-0.2-0.28-0.36-0.38c-0.16-0.1-0.35-0.15-0.57-0.15c-0.35,0-0.62,0.13-0.83,0.39c-0.14,0.18-0.21,0.35-0.21,0.52
		c0,0.19,0.1,0.37,0.3,0.55c0.2,0.18,0.45,0.26,0.74,0.26c0.3,0,0.54-0.09,0.74-0.26C52.29,242.8,52.39,242.61,52.39,242.42z"/>
	<path class="st1" d="M57.15,242.81h-2.88c0.07,0.18,0.2,0.33,0.39,0.44c0.19,0.11,0.44,0.17,0.75,0.17c0.26,0,0.6-0.06,1.04-0.17
		c0.18-0.04,0.3-0.07,0.37-0.07c0.09,0,0.17,0.03,0.24,0.1c0.06,0.07,0.1,0.15,0.1,0.25c0,0.09-0.03,0.17-0.1,0.23
		c-0.09,0.08-0.31,0.17-0.67,0.24c-0.35,0.08-0.69,0.11-1.02,0.11c-0.56,0-1.01-0.16-1.34-0.47c-0.34-0.32-0.5-0.71-0.5-1.17
		c0-0.49,0.18-0.89,0.54-1.2c0.36-0.31,0.78-0.46,1.26-0.46c0.28,0,0.55,0.05,0.78,0.15c0.24,0.1,0.42,0.21,0.53,0.33
		c0.16,0.17,0.3,0.38,0.41,0.62c0.07,0.17,0.11,0.37,0.11,0.6V242.81z M56.37,242.11c-0.11-0.2-0.25-0.35-0.42-0.45
		c-0.17-0.1-0.38-0.15-0.62-0.15c-0.24,0-0.44,0.05-0.62,0.15c-0.17,0.1-0.31,0.25-0.42,0.45H56.37z"/>
	<path class="st1" d="M59.93,240.91v2.4h0.84c0.17,0,0.29,0.03,0.36,0.1c0.07,0.07,0.11,0.15,0.11,0.25c0,0.1-0.04,0.19-0.11,0.25
		c-0.07,0.07-0.19,0.1-0.36,0.1h-2.38c-0.17,0-0.29-0.03-0.36-0.1c-0.07-0.06-0.11-0.15-0.11-0.25c0-0.1,0.04-0.19,0.11-0.25
		c0.07-0.06,0.19-0.1,0.36-0.1h0.84v-1.7h-0.56c-0.17,0-0.29-0.03-0.36-0.1c-0.07-0.07-0.11-0.15-0.11-0.25
		c0-0.1,0.04-0.19,0.11-0.25c0.07-0.07,0.19-0.1,0.36-0.1H59.93z M59.84,239.58v0.74H59v-0.74H59.84z"/>
	<path class="st1" d="M64.42,244.01v-0.16c-0.17,0.09-0.37,0.16-0.58,0.21c-0.21,0.05-0.41,0.07-0.58,0.07
		c-0.38,0-0.68-0.1-0.92-0.3c-0.23-0.2-0.35-0.42-0.35-0.66c0-0.29,0.15-0.57,0.45-0.82s0.71-0.38,1.24-0.38
		c0.21,0,0.46,0.02,0.73,0.07v-0.17c0-0.11-0.04-0.19-0.13-0.26c-0.09-0.07-0.26-0.1-0.51-0.1c-0.21,0-0.48,0.04-0.81,0.12
		c-0.12,0.03-0.22,0.04-0.29,0.04c-0.09,0-0.17-0.03-0.24-0.1c-0.06-0.07-0.1-0.15-0.1-0.26c0-0.06,0.01-0.11,0.04-0.15
		c0.02-0.04,0.05-0.08,0.1-0.1c0.04-0.03,0.13-0.06,0.26-0.09c0.17-0.05,0.35-0.09,0.53-0.11c0.18-0.03,0.34-0.04,0.49-0.04
		c0.44,0,0.77,0.09,1.01,0.28c0.24,0.19,0.36,0.45,0.36,0.77v1.44h0.12c0.17,0,0.29,0.03,0.36,0.1c0.07,0.07,0.11,0.15,0.11,0.25
		c0,0.1-0.04,0.19-0.11,0.25c-0.07,0.07-0.19,0.1-0.36,0.1H64.42z M64.42,242.75c-0.28-0.05-0.54-0.08-0.78-0.08
		c-0.29,0-0.53,0.07-0.73,0.21c-0.13,0.09-0.19,0.18-0.19,0.27c0,0.07,0.03,0.12,0.09,0.16c0.11,0.08,0.27,0.11,0.47,0.11
		c0.17,0,0.36-0.03,0.57-0.1c0.21-0.07,0.4-0.16,0.57-0.27V242.75z"/>
	<path class="st1" d="M68.52,243.66c0,0.13-0.05,0.24-0.14,0.33s-0.22,0.13-0.39,0.13s-0.29-0.04-0.39-0.13s-0.14-0.2-0.14-0.33
		c0-0.13,0.05-0.24,0.14-0.33s0.22-0.13,0.39-0.13s0.29,0.04,0.39,0.13S68.52,243.52,68.52,243.66z"/>
	<path class="st1" d="M73.28,241.03c0.08-0.08,0.17-0.12,0.26-0.12c0.1,0,0.18,0.04,0.25,0.11c0.06,0.07,0.1,0.19,0.1,0.36v0.45
		c0,0.17-0.03,0.29-0.1,0.36c-0.07,0.07-0.15,0.11-0.25,0.11c-0.1,0-0.18-0.03-0.24-0.08c-0.05-0.04-0.09-0.12-0.11-0.25
		c-0.03-0.13-0.09-0.22-0.2-0.28c-0.18-0.11-0.42-0.16-0.71-0.16c-0.33,0-0.59,0.1-0.79,0.29c-0.2,0.19-0.3,0.44-0.3,0.74
		c0,0.27,0.1,0.49,0.29,0.65s0.51,0.24,0.95,0.24c0.29,0,0.53-0.03,0.71-0.09c0.11-0.04,0.21-0.1,0.31-0.19
		c0.1-0.09,0.19-0.13,0.27-0.13c0.1,0,0.18,0.04,0.25,0.11c0.07,0.07,0.1,0.15,0.1,0.25c0,0.15-0.11,0.3-0.32,0.44
		c-0.31,0.21-0.77,0.31-1.38,0.31c-0.54,0-0.97-0.11-1.27-0.34c-0.41-0.3-0.62-0.72-0.62-1.24c0-0.5,0.17-0.91,0.5-1.24
		c0.33-0.33,0.77-0.49,1.3-0.49c0.19,0,0.37,0.02,0.54,0.05C72.99,240.9,73.14,240.96,73.28,241.03z"/>
	<path class="st1" d="M78.21,242.51c0,0.27-0.07,0.53-0.22,0.78s-0.37,0.45-0.67,0.6s-0.6,0.22-0.92,0.22
		c-0.32,0-0.62-0.07-0.92-0.22c-0.29-0.15-0.51-0.35-0.67-0.6c-0.15-0.25-0.23-0.52-0.23-0.79c0-0.28,0.08-0.55,0.23-0.83
		c0.16-0.27,0.38-0.48,0.67-0.64c0.29-0.15,0.59-0.23,0.91-0.23c0.32,0,0.63,0.08,0.92,0.24c0.29,0.16,0.52,0.37,0.67,0.64
		S78.21,242.23,78.21,242.51z M77.51,242.52c0-0.23-0.08-0.43-0.24-0.62c-0.22-0.26-0.51-0.38-0.87-0.38c-0.32,0-0.58,0.1-0.79,0.3
		c-0.21,0.2-0.32,0.44-0.32,0.7c0,0.22,0.11,0.42,0.32,0.61c0.21,0.19,0.48,0.29,0.79,0.29c0.31,0,0.58-0.1,0.79-0.29
		C77.4,242.95,77.51,242.74,77.51,242.52z"/>
	<path class="st1" d="M79.51,240.91v0.2c0.11-0.11,0.22-0.19,0.31-0.23c0.09-0.04,0.2-0.06,0.32-0.06c0.1,0,0.2,0.02,0.3,0.08
		c0.1,0.05,0.2,0.12,0.29,0.23c0.12-0.1,0.24-0.17,0.37-0.22c0.12-0.05,0.25-0.07,0.38-0.07c0.26,0,0.47,0.07,0.63,0.21
		c0.21,0.18,0.32,0.42,0.32,0.72v1.57c0.15,0,0.25,0.03,0.33,0.1c0.07,0.07,0.11,0.15,0.11,0.25s-0.04,0.19-0.11,0.25
		c-0.07,0.07-0.19,0.1-0.36,0.1h-0.67v-2.21c0-0.11-0.02-0.18-0.06-0.22c-0.04-0.04-0.1-0.06-0.18-0.06c-0.08,0-0.15,0.02-0.22,0.06
		c-0.08,0.06-0.19,0.16-0.31,0.32v1.41c0.15,0,0.25,0.03,0.32,0.1c0.07,0.07,0.11,0.15,0.11,0.25s-0.04,0.19-0.11,0.25
		c-0.07,0.07-0.19,0.1-0.36,0.1h-0.67v-2.21c0-0.1-0.02-0.18-0.06-0.22c-0.04-0.04-0.1-0.06-0.18-0.06c-0.08,0-0.16,0.03-0.24,0.08
		c-0.08,0.05-0.18,0.15-0.29,0.31v1.41c0.15,0,0.25,0.03,0.33,0.1c0.07,0.07,0.11,0.15,0.11,0.25s-0.04,0.19-0.11,0.25
		c-0.07,0.07-0.19,0.1-0.36,0.1h-0.63c-0.17,0-0.29-0.03-0.36-0.1c-0.07-0.06-0.11-0.15-0.11-0.25c0-0.1,0.04-0.19,0.11-0.25
		c0.07-0.06,0.18-0.1,0.33-0.1v-1.7c-0.15,0-0.26-0.03-0.33-0.1c-0.07-0.07-0.11-0.15-0.11-0.25s0.04-0.19,0.11-0.25
		c0.07-0.07,0.19-0.1,0.36-0.1H79.51z"/>
	<path class="st1" d="M85.33,243.66c0,0.13-0.05,0.24-0.14,0.33s-0.22,0.13-0.39,0.13s-0.29-0.04-0.39-0.13s-0.14-0.2-0.14-0.33
		c0-0.13,0.05-0.24,0.14-0.33s0.22-0.13,0.39-0.13s0.29,0.04,0.39,0.13S85.33,243.52,85.33,243.66z"/>
	<path class="st1" d="M89.62,244.01v-0.16c-0.17,0.09-0.37,0.16-0.58,0.21c-0.21,0.05-0.41,0.07-0.58,0.07
		c-0.38,0-0.68-0.1-0.92-0.3c-0.23-0.2-0.35-0.42-0.35-0.66c0-0.29,0.15-0.57,0.45-0.82s0.71-0.38,1.24-0.38
		c0.21,0,0.46,0.02,0.73,0.07v-0.17c0-0.11-0.04-0.19-0.13-0.26c-0.09-0.07-0.26-0.1-0.51-0.1c-0.21,0-0.48,0.04-0.81,0.12
		c-0.12,0.03-0.22,0.04-0.29,0.04c-0.09,0-0.17-0.03-0.24-0.1c-0.06-0.07-0.1-0.15-0.1-0.26c0-0.06,0.01-0.11,0.04-0.15
		c0.02-0.04,0.05-0.08,0.1-0.1c0.04-0.03,0.13-0.06,0.26-0.09c0.17-0.05,0.35-0.09,0.53-0.11c0.18-0.03,0.34-0.04,0.49-0.04
		c0.44,0,0.77,0.09,1.01,0.28c0.24,0.19,0.36,0.45,0.36,0.77v1.44h0.12c0.17,0,0.29,0.03,0.36,0.1c0.07,0.07,0.11,0.15,0.11,0.25
		c0,0.1-0.04,0.19-0.11,0.25c-0.07,0.07-0.19,0.1-0.36,0.1H89.62z M89.62,242.75c-0.28-0.05-0.54-0.08-0.78-0.08
		c-0.29,0-0.53,0.07-0.73,0.21c-0.13,0.09-0.19,0.18-0.19,0.27c0,0.07,0.03,0.12,0.09,0.16c0.11,0.08,0.27,0.11,0.47,0.11
		c0.17,0,0.36-0.03,0.57-0.1c0.21-0.07,0.4-0.16,0.57-0.27V242.75z"/>
	<path class="st1" d="M94.68,240.91v2.4c0.15,0,0.26,0.03,0.33,0.1c0.07,0.07,0.11,0.15,0.11,0.25s-0.04,0.19-0.11,0.25
		c-0.07,0.07-0.19,0.1-0.36,0.1h-0.67v-0.16c-0.2,0.09-0.39,0.16-0.57,0.21c-0.18,0.05-0.36,0.07-0.52,0.07
		c-0.23,0-0.43-0.05-0.6-0.14c-0.17-0.1-0.3-0.23-0.4-0.4c-0.07-0.12-0.11-0.28-0.11-0.46v-1.51h-0.12c-0.17,0-0.29-0.03-0.36-0.1
		c-0.07-0.07-0.11-0.15-0.11-0.25c0-0.1,0.04-0.19,0.11-0.25c0.07-0.07,0.19-0.1,0.36-0.1h0.82v2.08c0,0.15,0.04,0.26,0.11,0.33
		c0.07,0.07,0.18,0.1,0.33,0.1c0.14,0,0.29-0.03,0.46-0.08s0.36-0.16,0.6-0.3v-1.43h-0.25c-0.17,0-0.29-0.03-0.36-0.1
		c-0.07-0.07-0.11-0.15-0.11-0.25c0-0.1,0.04-0.19,0.11-0.25c0.07-0.07,0.19-0.1,0.36-0.1H94.68z"/>
</g>
</svg>
