<svg id="Layer_1" data-name="Layer 1" xmlns="http://www.w3.org/2000/svg" viewBox="0 0 144 252"><defs><style>.cls-1{fill:#fff;}.cls-2{fill:#cebfbd;}.cls-3{fill:#58595b;}.cls-4{fill:#e2d1d0;}</style></defs><title>cardfront1</title><rect class="cls-1" width="144" height="252"/><rect class="cls-2" x="9" y="9" width="126" height="23.83"/><path class="cls-3" d="M25.54,134.49v.88h.26a.5.5,0,0,1,.36.1.34.34,0,0,1,0,.5.5.5,0,0,1-.36.1H24.73a.53.53,0,0,1-.36-.1.32.32,0,0,1-.1-.25.3.3,0,0,1,.11-.25.49.49,0,0,1,.35-.1h.11v-2.74h-.11a.53.53,0,0,1-.36-.1.32.32,0,0,1-.1-.25.34.34,0,0,1,.1-.26.59.59,0,0,1,.36-.1h1.59a1.64,1.64,0,0,1,1.15.37,1.15,1.15,0,0,1,.41.89,1,1,0,0,1-.19.6,1.77,1.77,0,0,1-.58.47,3.85,3.85,0,0,1,.47.5,6.19,6.19,0,0,1,.43.61.85.85,0,0,1,.35,0,.36.36,0,0,1,.15.3.32.32,0,0,1-.1.25.5.5,0,0,1-.36.1h-.4a4.53,4.53,0,0,0-1.41-1.58Zm0-.7h.55a1.49,1.49,0,0,0,.54-.09,1.2,1.2,0,0,0,.44-.26.5.5,0,0,0,.11-.27.47.47,0,0,0-.21-.37,1,1,0,0,0-.62-.17h-.81Z" transform="translate(-10 -7.42)"/><path class="cls-3" d="M32.23,134.87H29.35a.94.94,0,0,0,.39.45,1.49,1.49,0,0,0,.75.16,4.39,4.39,0,0,0,1-.16,1.56,1.56,0,0,1,.37-.07.29.29,0,0,1,.23.1.32.32,0,0,1,.1.25.3.3,0,0,1-.1.23,1.82,1.82,0,0,1-.67.24,4.55,4.55,0,0,1-1,.11,1.84,1.84,0,0,1-1.34-.47,1.55,1.55,0,0,1-.51-1.17,1.52,1.52,0,0,1,.55-1.2,1.87,1.87,0,0,1,1.26-.46,2,2,0,0,1,.78.15,1.61,1.61,0,0,1,.53.32,2,2,0,0,1,.41.63,1.57,1.57,0,0,1,.11.6Zm-.78-.7a1.15,1.15,0,0,0-.42-.45,1.32,1.32,0,0,0-.62-.14,1.28,1.28,0,0,0-.61.14,1.1,1.1,0,0,0-.43.45Z" transform="translate(-10 -7.42)"/><path class="cls-3" d="M35.44,133.18V133h.82a.56.56,0,0,1,.36.09.35.35,0,0,1,.11.26.33.33,0,0,1-.11.25.5.5,0,0,1-.36.1h-.12v2.55a1.22,1.22,0,0,1-.16.64,1.39,1.39,0,0,1-1.2.67H34a.56.56,0,0,1-.36-.09.35.35,0,0,1-.11-.26.34.34,0,0,1,.11-.25.55.55,0,0,1,.36-.1h.77a.7.7,0,0,0,.5-.17.59.59,0,0,0,.18-.44v-.34a2,2,0,0,1-.47.22,1.69,1.69,0,0,1-.5.08,1.66,1.66,0,1,1,0-3.32,1.7,1.7,0,0,1,.51.08A1.56,1.56,0,0,1,35.44,133.18Zm0,1.34a.92.92,0,0,0-.29-.67,1,1,0,0,0-1.37,0,.92.92,0,0,0,0,1.34,1,1,0,0,0,1.37,0A.92.92,0,0,0,35.44,134.52Z" transform="translate(-10 -7.42)"/><path class="cls-3" d="M39.22,133v2.4h.84a.5.5,0,0,1,.36.1.36.36,0,0,1,0,.5.5.5,0,0,1-.36.1H37.67a.53.53,0,0,1-.36-.1.36.36,0,0,1,0-.5.53.53,0,0,1,.36-.1h.84v-1.7H38a.53.53,0,0,1-.36-.1.33.33,0,0,1-.11-.25.35.35,0,0,1,.11-.26A.56.56,0,0,1,38,133Zm-.1-1.33v.74h-.83v-.74Z" transform="translate(-10 -7.42)"/><path class="cls-3" d="M44.89,134.58a1.49,1.49,0,0,1-.22.78,1.64,1.64,0,0,1-.67.6,2,2,0,0,1-1.84,0,1.56,1.56,0,0,1-.67-.6,1.51,1.51,0,0,1-.23-.79,1.7,1.7,0,0,1,.9-1.46,1.9,1.9,0,0,1,.92-.23,1.93,1.93,0,0,1,.92.23,1.72,1.72,0,0,1,.67.64A1.66,1.66,0,0,1,44.89,134.58Zm-.7,0A.93.93,0,0,0,44,134a1.08,1.08,0,0,0-.87-.38,1.12,1.12,0,0,0-.8.3,1,1,0,0,0-.32.7.82.82,0,0,0,.33.62,1.12,1.12,0,0,0,.79.28,1.16,1.16,0,0,0,.79-.28A.84.84,0,0,0,44.19,134.58Z" transform="translate(-10 -7.42)"/><path class="cls-3" d="M46.56,133v.23A1.27,1.27,0,0,1,47,133a1.4,1.4,0,0,1,.51-.08,1.27,1.27,0,0,1,1,.38,1.16,1.16,0,0,1,.29.81v1.3a.44.44,0,0,1,.32.1.3.3,0,0,1,.11.25.33.33,0,0,1-.11.25.5.5,0,0,1-.36.1h-.63a.5.5,0,0,1-.36-.1.34.34,0,0,1,0-.5.45.45,0,0,1,.33-.1v-1.32a.43.43,0,0,0-.13-.34.71.71,0,0,0-.48-.13.93.93,0,0,0-.42.09,1.84,1.84,0,0,0-.47.4v1.3a.82.82,0,0,1,.35,0,.34.34,0,0,1,.17.3A.33.33,0,0,1,47,136a.5.5,0,0,1-.36.1h-.8a.5.5,0,0,1-.36-.1.33.33,0,0,1-.11-.25.34.34,0,0,1,.17-.3.82.82,0,0,1,.35,0v-1.7a.5.5,0,0,1-.33-.1.33.33,0,0,1-.1-.25.31.31,0,0,1,.11-.26.56.56,0,0,1,.36-.09Z" transform="translate(-10 -7.42)"/><path class="cls-3" d="M52,133.44a.45.45,0,0,1-.14.33.53.53,0,0,1-.39.13.52.52,0,0,1-.38-.13.42.42,0,0,1-.14-.33.42.42,0,0,1,.14-.34.56.56,0,0,1,.38-.13.57.57,0,0,1,.39.13A.46.46,0,0,1,52,133.44Zm0,2.29a.45.45,0,0,1-.14.33.65.65,0,0,1-.78,0,.46.46,0,0,1,0-.66.61.61,0,0,1,.78,0A.45.45,0,0,1,52,135.73Z" transform="translate(-10 -7.42)"/><path class="cls-3" d="M25.39,156.18v2.12h.25a.56.56,0,0,1,.36.09.31.31,0,0,1,.11.26.3.3,0,0,1-.11.25.5.5,0,0,1-.36.1h-.92a.53.53,0,0,1-.36-.1.36.36,0,0,1,0-.5.45.45,0,0,1,.33-.1v-2.74h-.11a.55.55,0,0,1-.36-.1.35.35,0,0,1-.11-.26.33.33,0,0,1,.11-.25.5.5,0,0,1,.36-.1h.81l1.79,2.81v-2.11h-.25a.55.55,0,0,1-.36-.1.35.35,0,0,1-.11-.26.33.33,0,0,1,.11-.25.5.5,0,0,1,.36-.1h.92a.56.56,0,0,1,.36.09.34.34,0,0,1,.11.25.35.35,0,0,1-.11.26.49.49,0,0,1-.32.1V159h-.7Z" transform="translate(-10 -7.42)"/><path class="cls-3" d="M32.29,157.5a1.56,1.56,0,0,1-.23.79,1.55,1.55,0,0,1-.66.6,2,2,0,0,1-.93.22,1.94,1.94,0,0,1-.91-.22,1.64,1.64,0,0,1-.67-.6,1.54,1.54,0,0,1-.23-.79,1.71,1.71,0,0,1,.23-.83,1.63,1.63,0,0,1,.67-.63,1.86,1.86,0,0,1,1.83,0,1.6,1.6,0,0,1,.67.64A1.67,1.67,0,0,1,32.29,157.5Zm-.7,0a.89.89,0,0,0-.25-.62,1.16,1.16,0,0,0-1.66-.08,1,1,0,0,0-.32.7.82.82,0,0,0,.32.61,1.23,1.23,0,0,0,1.59,0A.82.82,0,0,0,31.59,157.51Z" transform="translate(-10 -7.42)"/><path class="cls-3" d="M34.5,156.6V158a.38.38,0,0,0,.09.3.89.89,0,0,0,.51.11,2.19,2.19,0,0,0,1-.23.68.68,0,0,1,.28-.09.3.3,0,0,1,.23.11.31.31,0,0,1,.1.24.29.29,0,0,1-.11.24,1.56,1.56,0,0,1-.66.3,3.19,3.19,0,0,1-.83.13,1.47,1.47,0,0,1-1-.28.88.88,0,0,1-.33-.69V156.6h-.25a.55.55,0,0,1-.36-.1.35.35,0,0,1-.11-.26.34.34,0,0,1,.11-.25.55.55,0,0,1,.36-.1h.25v-.63a.55.55,0,0,1,.1-.36.35.35,0,0,1,.26-.11.34.34,0,0,1,.25.11.55.55,0,0,1,.1.36v.63h1.29a.55.55,0,0,1,.36.1.35.35,0,0,1,.11.26.34.34,0,0,1-.11.25.55.55,0,0,1-.36.1Z" transform="translate(-10 -7.42)"/><path class="cls-3" d="M40.63,157.8H37.75a1,1,0,0,0,.39.44,1.49,1.49,0,0,0,.75.17,4.5,4.5,0,0,0,1-.17,2.38,2.38,0,0,1,.37-.07.33.33,0,0,1,.33.35.33.33,0,0,1-.1.24,1.82,1.82,0,0,1-.67.24,5.21,5.21,0,0,1-1,.11,1.89,1.89,0,0,1-1.34-.47,1.55,1.55,0,0,1-.51-1.17,1.49,1.49,0,0,1,.55-1.2,1.88,1.88,0,0,1,1.26-.47,2,2,0,0,1,.78.15,1.51,1.51,0,0,1,.53.33,2,2,0,0,1,.41.62,1.64,1.64,0,0,1,.11.6Zm-.78-.7a1.15,1.15,0,0,0-.42-.45,1.21,1.21,0,0,0-.62-.15,1.2,1.2,0,0,0-.61.15,1.1,1.1,0,0,0-.43.45Z" transform="translate(-10 -7.42)"/><path class="cls-3" d="M43.83,156.71a1.38,1.38,0,0,0-.36-.15,1.46,1.46,0,0,0-1,.08c-.07,0-.11.08-.11.12s0,.11.15.16a2,2,0,0,0,.49.1,7.43,7.43,0,0,1,1,.19,1.18,1.18,0,0,1,.55.38.84.84,0,0,1,.19.53.77.77,0,0,1-.33.63,2,2,0,0,1-1.23.36,3.24,3.24,0,0,1-.56-.05,2.46,2.46,0,0,1-.48-.16A.26.26,0,0,1,42,159a.21.21,0,0,1-.12,0,.36.36,0,0,1-.26-.11.56.56,0,0,1-.09-.36v-.24a.56.56,0,0,1,.09-.36.35.35,0,0,1,.26-.11.38.38,0,0,1,.21.07.46.46,0,0,1,.13.24,1.22,1.22,0,0,0,.39.21,1.64,1.64,0,0,0,.52.07,1.56,1.56,0,0,0,.75-.15c.08,0,.12-.1.12-.16s-.06-.16-.18-.22a2.61,2.61,0,0,0-.75-.15,2.09,2.09,0,0,1-1.12-.35.78.78,0,0,1-.29-.61.79.79,0,0,1,.32-.63,1.81,1.81,0,0,1,1.13-.34,2.42,2.42,0,0,1,.47,0A2.07,2.07,0,0,1,44,156l.12-.07.11,0a.3.3,0,0,1,.24.11.56.56,0,0,1,.09.36v.17a.55.55,0,0,1-.05.31.33.33,0,0,1-.3.16.3.3,0,0,1-.22-.08A.37.37,0,0,1,43.83,156.71Z" transform="translate(-10 -7.42)"/><path class="cls-3" d="M47.8,156.36a.42.42,0,0,1-.14.33.53.53,0,0,1-.39.14.52.52,0,0,1-.38-.14.39.39,0,0,1-.14-.33.42.42,0,0,1,.14-.33.52.52,0,0,1,.38-.13.53.53,0,0,1,.39.13A.45.45,0,0,1,47.8,156.36Zm0,2.3a.45.45,0,0,1-.14.33.65.65,0,0,1-.78,0,.45.45,0,0,1-.14-.33.42.42,0,0,1,.14-.33.61.61,0,0,1,.78,0A.42.42,0,0,1,47.81,158.66Z" transform="translate(-10 -7.42)"/><path class="cls-3" d="M24.84,101.72V99h-.11a.5.5,0,0,1-.36-.1.3.3,0,0,1-.11-.25.31.31,0,0,1,.11-.26.56.56,0,0,1,.36-.09h1.75a1.44,1.44,0,0,1,1,.35,1.1,1.1,0,0,1,.38.83,1,1,0,0,1-.09.43,1.17,1.17,0,0,1-.27.37,1.52,1.52,0,0,1,.5.47,1.08,1.08,0,0,1,.16.6,1,1,0,0,1-.12.49.78.78,0,0,1-.22.28,1.39,1.39,0,0,1-.42.23,1.91,1.91,0,0,1-.63.09H24.73a.56.56,0,0,1-.36-.09.31.31,0,0,1-.11-.26.33.33,0,0,1,.11-.25.5.5,0,0,1,.36-.1Zm.7-1.72h.77a1.08,1.08,0,0,0,.68-.21.41.41,0,0,0,.19-.35.4.4,0,0,0-.18-.32.89.89,0,0,0-.55-.14h-.91Zm0,1.72h1.21a1.12,1.12,0,0,0,.6-.12.33.33,0,0,0,.13-.28.55.55,0,0,0-.26-.41,1.21,1.21,0,0,0-.76-.21h-.92Z" transform="translate(-10 -7.42)"/><path class="cls-3" d="M30.32,99.32v.44a3.66,3.66,0,0,1,.7-.43,1.25,1.25,0,0,1,.48-.1,1.07,1.07,0,0,1,.66.25.48.48,0,0,1,.22.35.38.38,0,0,1-.36.36.45.45,0,0,1-.27-.13.4.4,0,0,0-.26-.13,1,1,0,0,0-.44.18c-.19.13-.43.31-.73.56v1h1a.5.5,0,0,1,.36.1.33.33,0,0,1,.11.25.35.35,0,0,1-.11.26.56.56,0,0,1-.36.09H29.21a.61.61,0,0,1-.37-.09.34.34,0,0,1-.1-.26.32.32,0,0,1,.1-.25.55.55,0,0,1,.37-.1h.41V100h-.25a.5.5,0,0,1-.36-.1.34.34,0,0,1,0-.5.5.5,0,0,1,.36-.1Z" transform="translate(-10 -7.42)"/><path class="cls-3" d="M36.43,101.23H33.55a.92.92,0,0,0,.39.44,1.49,1.49,0,0,0,.75.16,4.39,4.39,0,0,0,1-.16,1.56,1.56,0,0,1,.37-.07.29.29,0,0,1,.23.1.32.32,0,0,1,.1.25.29.29,0,0,1-.1.23,1.82,1.82,0,0,1-.67.24,4.57,4.57,0,0,1-1,.12,1.85,1.85,0,0,1-1.34-.48,1.55,1.55,0,0,1-.51-1.17,1.52,1.52,0,0,1,.55-1.2,1.87,1.87,0,0,1,1.26-.46,2,2,0,0,1,.78.15,1.8,1.8,0,0,1,.53.32,2,2,0,0,1,.41.63,1.57,1.57,0,0,1,.11.6Zm-.78-.7a1.15,1.15,0,0,0-.42-.45,1.21,1.21,0,0,0-.62-.15,1.2,1.2,0,0,0-.61.15,1.1,1.1,0,0,0-.43.45Z" transform="translate(-10 -7.42)"/><path class="cls-3" d="M38.87,101.13l-.48,1.29h-.66l-.59-2.4a.43.43,0,0,1-.29-.11.33.33,0,0,1-.1-.24.33.33,0,0,1,.11-.25.5.5,0,0,1,.36-.1h.66a.52.52,0,0,1,.36.1.32.32,0,0,1,.1.25.34.34,0,0,1-.12.27.59.59,0,0,1-.36.08l.27,1.11.43-1.14h.62l.44,1.14.27-1.11a.83.83,0,0,1-.34,0,.33.33,0,0,1-.16-.3.32.32,0,0,1,.1-.25.53.53,0,0,1,.36-.1h.66a.55.55,0,0,1,.37.1.32.32,0,0,1,.1.25.36.36,0,0,1-.09.24.45.45,0,0,1-.28.11l-.57,2.4h-.65Z" transform="translate(-10 -7.42)"/><path class="cls-3" d="M43.42,99.32v2.4h.84a.5.5,0,0,1,.36.1.33.33,0,0,1,.11.25.35.35,0,0,1-.11.26.56.56,0,0,1-.36.09H41.88a.61.61,0,0,1-.37-.09.34.34,0,0,1-.1-.26.32.32,0,0,1,.1-.25.55.55,0,0,1,.37-.1h.84V100h-.57a.53.53,0,0,1-.36-.1.34.34,0,0,1,0-.5.5.5,0,0,1,.36-.1ZM43.32,98v.74h-.83V98Z" transform="translate(-10 -7.42)"/><path class="cls-3" d="M46.56,99.32v.24a1.3,1.3,0,0,1,.42-.25,1.4,1.4,0,0,1,.51-.08,1.3,1.3,0,0,1,1,.38,1.16,1.16,0,0,1,.29.81v1.3a.44.44,0,0,1,.32.1.3.3,0,0,1,.11.25.35.35,0,0,1-.11.26.56.56,0,0,1-.36.09h-.63a.56.56,0,0,1-.36-.09.35.35,0,0,1-.11-.26.33.33,0,0,1,.11-.25.45.45,0,0,1,.33-.1V100.4a.46.46,0,0,0-.13-.34.71.71,0,0,0-.48-.13A.93.93,0,0,0,47,100a1.84,1.84,0,0,0-.47.4v1.3a.82.82,0,0,1,.35,0,.34.34,0,0,1,.17.3.35.35,0,0,1-.11.26.56.56,0,0,1-.36.09h-.8a.56.56,0,0,1-.36-.09.35.35,0,0,1-.11-.26.34.34,0,0,1,.17-.3.82.82,0,0,1,.35,0V100a.45.45,0,0,1-.33-.1.33.33,0,0,1-.1-.25.3.3,0,0,1,.11-.25.5.5,0,0,1,.36-.1Z" transform="translate(-10 -7.42)"/><path class="cls-3" d="M52.24,99.53v-.21h.82a.5.5,0,0,1,.36.1.34.34,0,0,1,0,.5.5.5,0,0,1-.36.1h-.12v2.55a1.29,1.29,0,0,1-.15.64,1.4,1.4,0,0,1-1.2.68h-.8a.55.55,0,0,1-.36-.1.34.34,0,0,1-.11-.25.35.35,0,0,1,.11-.26.56.56,0,0,1,.36-.09h.78a.64.64,0,0,0,.49-.18.59.59,0,0,0,.18-.44v-.34a1.82,1.82,0,0,1-.47.22,1.67,1.67,0,0,1-.49.08,1.63,1.63,0,0,1-1.2-.48,1.69,1.69,0,0,1,0-2.36,1.66,1.66,0,0,1,1.2-.47,1.68,1.68,0,0,1,.5.07A1.45,1.45,0,0,1,52.24,99.53Zm0,1.34a1,1,0,0,0-1-1,.94.94,0,0,0-.69.28.94.94,0,0,0,0,1.34.94.94,0,0,0,.69.28,1,1,0,0,0,1-.95Z" transform="translate(-10 -7.42)"/><path class="cls-3" d="M58.78,99.63v2.09H59a.5.5,0,0,1,.36.1.33.33,0,0,1,.11.25.35.35,0,0,1-.11.26.56.56,0,0,1-.36.09h-.92a.56.56,0,0,1-.36-.09.35.35,0,0,1-.11-.26.33.33,0,0,1,.11-.25.45.45,0,0,1,.33-.1V99a.43.43,0,0,1-.28-.11.37.37,0,0,1-.1-.24.35.35,0,0,1,.11-.26.56.56,0,0,1,.36-.09h.77l1,2.11.93-2.11h.78a.5.5,0,0,1,.36.1.31.31,0,0,1,.11.25.37.37,0,0,1-.1.24.45.45,0,0,1-.28.11v2.74a.5.5,0,0,1,.33.1.34.34,0,0,1,.11.25.35.35,0,0,1-.11.26.56.56,0,0,1-.36.09h-.92a.56.56,0,0,1-.36-.09.35.35,0,0,1-.11-.26.33.33,0,0,1,.11-.25.5.5,0,0,1,.36-.1H61V99.63l-.8,1.81h-.61Z" transform="translate(-10 -7.42)"/><path class="cls-3" d="M65.83,101.23H63a.87.87,0,0,0,.39.44,1.44,1.44,0,0,0,.75.16,4.47,4.47,0,0,0,1-.16,1.51,1.51,0,0,1,.36-.07.3.3,0,0,1,.24.1.36.36,0,0,1,.1.25.3.3,0,0,1-.11.23,1.74,1.74,0,0,1-.66.24,4.71,4.71,0,0,1-1,.12,1.89,1.89,0,0,1-1.35-.48,1.57,1.57,0,0,1-.5-1.17,1.51,1.51,0,0,1,.54-1.2A1.9,1.9,0,0,1,64,99.23a2,2,0,0,1,.79.15,1.94,1.94,0,0,1,.53.32,2,2,0,0,1,.4.63,1.4,1.4,0,0,1,.11.6Zm-.77-.7a1.15,1.15,0,0,0-.42-.45,1.36,1.36,0,0,0-1.24,0,1.15,1.15,0,0,0-.42.45Z" transform="translate(-10 -7.42)"/><path class="cls-3" d="M68.1,100v1.4a.37.37,0,0,0,.09.3.85.85,0,0,0,.52.11,2.24,2.24,0,0,0,1-.22.64.64,0,0,1,.27-.09.33.33,0,0,1,.24.1.33.33,0,0,1,.1.25.3.3,0,0,1-.11.23,1.56,1.56,0,0,1-.66.3,3.33,3.33,0,0,1-.83.14,1.45,1.45,0,0,1-1-.29.87.87,0,0,1-.33-.69V100h-.25a.5.5,0,0,1-.36-.1.34.34,0,0,1,0-.5.5.5,0,0,1,.36-.1h.25v-.63a.5.5,0,0,1,.1-.36.3.3,0,0,1,.25-.11.28.28,0,0,1,.25.11.5.5,0,0,1,.1.36v.63h1.3a.5.5,0,0,1,.36.1.34.34,0,0,1,0,.5.5.5,0,0,1-.36.1Z" transform="translate(-10 -7.42)"/><path class="cls-3" d="M71.75,98v1.49a2.09,2.09,0,0,1,.44-.19,1.76,1.76,0,0,1,.46-.06,1.62,1.62,0,0,1,.64.12,1,1,0,0,1,.47.39,1.09,1.09,0,0,1,.19.67v1.31a.85.85,0,0,1,.35,0,.33.33,0,0,1,.16.3.34.34,0,0,1-.1.26.56.56,0,0,1-.36.09h-.8a.56.56,0,0,1-.36-.09.35.35,0,0,1-.11-.26.34.34,0,0,1,.17-.3.82.82,0,0,1,.35,0v-1.27a.51.51,0,0,0-.13-.38.71.71,0,0,0-.47-.14.86.86,0,0,0-.41.09,2.13,2.13,0,0,0-.49.39v1.31a.82.82,0,0,1,.35,0,.34.34,0,0,1,.17.3.35.35,0,0,1-.11.26.56.56,0,0,1-.36.09H71a.56.56,0,0,1-.36-.09.35.35,0,0,1-.11-.26.34.34,0,0,1,.17-.3.85.85,0,0,1,.35,0v-3h-.12a.5.5,0,0,1-.36-.1.34.34,0,0,1,0-.5.5.5,0,0,1,.36-.1Z" transform="translate(-10 -7.42)"/><path class="cls-3" d="M78.5,100.93a1.5,1.5,0,0,1-.23.78,1.61,1.61,0,0,1-.66.6,2.06,2.06,0,0,1-.93.23,2.14,2.14,0,0,1-.92-.22,1.61,1.61,0,0,1-.66-.6,1.57,1.57,0,0,1-.23-.8,1.68,1.68,0,0,1,.9-1.46,1.84,1.84,0,0,1,.91-.23,2,2,0,0,1,.92.23,1.66,1.66,0,0,1,.67.64A1.71,1.71,0,0,1,78.5,100.93Zm-.71,0a1,1,0,0,0-.24-.62,1.11,1.11,0,0,0-.87-.38,1.09,1.09,0,0,0-.79.3,1,1,0,0,0-.32.71.84.84,0,0,0,.32.61,1.16,1.16,0,0,0,.79.28,1.12,1.12,0,0,0,.79-.28A.81.81,0,0,0,77.79,100.93Z" transform="translate(-10 -7.42)"/><path class="cls-3" d="M82.49,98v3.73h.11a.5.5,0,0,1,.36.1.3.3,0,0,1,.11.25.31.31,0,0,1-.11.26.56.56,0,0,1-.36.09h-.82v-.17a1.57,1.57,0,0,1-.5.21,1.91,1.91,0,0,1-.54.08,1.8,1.8,0,0,1-1.27-.46,1.5,1.5,0,0,1-.48-1.14,1.71,1.71,0,0,1,1.74-1.71,1.59,1.59,0,0,1,.53.08,2.26,2.26,0,0,1,.52.25v-.87h-.11a.55.55,0,0,1-.37-.1.36.36,0,0,1,0-.5.55.55,0,0,1,.37-.1Zm-.71,3a1,1,0,0,0-.3-.73,1,1,0,0,0-.74-.3,1,1,0,0,0-.75.3,1,1,0,0,0-.3.72.84.84,0,0,0,.27.64,1.37,1.37,0,0,0,1.55,0A.83.83,0,0,0,81.78,101Z" transform="translate(-10 -7.42)"/><path class="cls-3" d="M85.83,100.14a1.46,1.46,0,0,0-.36-.16,1.6,1.6,0,0,0-.39,0,1.3,1.3,0,0,0-.64.13c-.07,0-.11.08-.11.13s0,.1.14.15a2.13,2.13,0,0,0,.49.11,4.75,4.75,0,0,1,1,.19,1.2,1.2,0,0,1,.56.37.86.86,0,0,1,.19.53.77.77,0,0,1-.33.63,2,2,0,0,1-1.23.37,2.56,2.56,0,0,1-.57-.06,1.73,1.73,0,0,1-.47-.15.41.41,0,0,1-.11.07l-.12,0a.35.35,0,0,1-.26-.11.55.55,0,0,1-.1-.36v-.23a.61.61,0,0,1,.1-.37.33.33,0,0,1,.25-.1.32.32,0,0,1,.22.07.44.44,0,0,1,.13.24,1,1,0,0,0,.39.2,1.64,1.64,0,0,0,.52.07,1.49,1.49,0,0,0,.74-.15c.09-.05.13-.1.13-.15a.27.27,0,0,0-.18-.23,2.61,2.61,0,0,0-.75-.15,2.14,2.14,0,0,1-1.13-.34.79.79,0,0,1-.28-.62.77.77,0,0,1,.32-.62,1.73,1.73,0,0,1,1.13-.34,2.32,2.32,0,0,1,.46,0,1.69,1.69,0,0,1,.43.15.42.42,0,0,1,.12-.08l.11,0a.34.34,0,0,1,.24.11.56.56,0,0,1,.09.36V100a.73.73,0,0,1,0,.31.38.38,0,0,1-.3.16.37.37,0,0,1-.35-.29Z" transform="translate(-10 -7.42)"/><path class="cls-3" d="M89.81,99.79a.45.45,0,0,1-.14.33.56.56,0,0,1-.39.13.54.54,0,0,1-.39-.13.45.45,0,0,1-.14-.33.44.44,0,0,1,.14-.33.55.55,0,0,1,.39-.14.56.56,0,0,1,.39.14A.44.44,0,0,1,89.81,99.79Zm0,2.29a.42.42,0,0,1-.14.33.52.52,0,0,1-.38.14.53.53,0,0,1-.39-.14.46.46,0,0,1,0-.66.53.53,0,0,1,.39-.13.52.52,0,0,1,.38.13A.42.42,0,0,1,89.81,102.08Z" transform="translate(-10 -7.42)"/><path class="cls-4" d="M140.52,242.35a4,4,0,0,1-1.68,2,7,7,0,0,1-2.9,1.23,4.36,4.36,0,0,1-2.09-.17.52.52,0,0,1-.39-.59,2.42,2.42,0,0,1,.13-.53,3.92,3.92,0,0,1,1.85-2.28,5.3,5.3,0,0,0,2.31-2.61l.09-.21a1.13,1.13,0,0,1,1.78-.47,2.57,2.57,0,0,1,.84,1.18l.06.16Z" transform="translate(-10 -7.42)"/><path class="cls-4" d="M131.89,242.12a2.82,2.82,0,0,1,.44-1.64c.25-.43.5-.86.72-1.31a3.8,3.8,0,0,1,2.61-1.92,2.6,2.6,0,0,1,.47-.09,1,1,0,0,1,1.16,1.31,9.12,9.12,0,0,1-.56,1.62,3,3,0,0,1-1.56,1.56,6.67,6.67,0,0,0-1,.57A3.16,3.16,0,0,0,133,244a.94.94,0,0,1-.06.15.16.16,0,0,1-.27,0,.52.52,0,0,1-.1-.11A2.94,2.94,0,0,1,131.89,242.12Z" transform="translate(-10 -7.42)"/><path class="cls-2" d="M27.07,241a.39.39,0,0,1,.26-.12.33.33,0,0,1,.25.11.5.5,0,0,1,.1.36v.45a.5.5,0,0,1-.1.36.32.32,0,0,1-.25.1.36.36,0,0,1-.25-.08A.53.53,0,0,1,27,242a.39.39,0,0,0-.2-.28,1.36,1.36,0,0,0-.71-.17,1.1,1.1,0,0,0-.79.29,1,1,0,0,0-.3.74.81.81,0,0,0,.29.65,1.56,1.56,0,0,0,.95.23,2.43,2.43,0,0,0,.72-.09.76.76,0,0,0,.31-.18.4.4,0,0,1,.26-.13.33.33,0,0,1,.25.1.36.36,0,0,1,.11.25c0,.16-.11.3-.32.44a2.52,2.52,0,0,1-1.38.31,2.11,2.11,0,0,1-1.27-.33,1.48,1.48,0,0,1-.62-1.25,1.68,1.68,0,0,1,.5-1.24,1.81,1.81,0,0,1,1.3-.49,2.23,2.23,0,0,1,.54.06A1.67,1.67,0,0,1,27.07,241Z" transform="translate(-10 -7.42)"/><path class="cls-2" d="M30.81,244v-.17a1.82,1.82,0,0,1-.58.21,2.47,2.47,0,0,1-.58.07,1.34,1.34,0,0,1-.91-.29.85.85,0,0,1-.35-.67,1.06,1.06,0,0,1,.45-.81,1.82,1.82,0,0,1,1.24-.38,4.06,4.06,0,0,1,.73.07v-.17a.3.3,0,0,0-.13-.26,1,1,0,0,0-.52-.1,3.18,3.18,0,0,0-.8.13,1.3,1.3,0,0,1-.29,0,.33.33,0,0,1-.24-.1.38.38,0,0,1-.1-.26.33.33,0,0,1,0-.15.21.21,0,0,1,.1-.11l.25-.09a3.12,3.12,0,0,1,.53-.11,3,3,0,0,1,.49-.05,1.64,1.64,0,0,1,1,.28.94.94,0,0,1,.36.78v1.44h.12a.5.5,0,0,1,.36.1.28.28,0,0,1,.11.25.3.3,0,0,1-.11.25.5.5,0,0,1-.36.1Zm0-1.26a4.48,4.48,0,0,0-.77-.08,1.29,1.29,0,0,0-.74.21c-.12.09-.19.18-.19.27a.18.18,0,0,0,.09.16.82.82,0,0,0,.47.11,2.09,2.09,0,0,0,.57-.09,1.9,1.9,0,0,0,.57-.28Z" transform="translate(-10 -7.42)"/><path class="cls-2" d="M35.14,241.73a1,1,0,0,0-.36-.16,1.27,1.27,0,0,0-.39-.06,1.33,1.33,0,0,0-.65.14c-.07,0-.1.08-.1.12s0,.11.14.16a2.16,2.16,0,0,0,.49.1,7.08,7.08,0,0,1,1,.19,1.18,1.18,0,0,1,.55.38.85.85,0,0,1,.2.53.77.77,0,0,1-.33.63,2,2,0,0,1-1.24.36,3.24,3.24,0,0,1-.56-.05,2.16,2.16,0,0,1-.47-.16l-.11.07a.25.25,0,0,1-.12,0,.33.33,0,0,1-.26-.1.5.5,0,0,1-.1-.36v-.24a.5.5,0,0,1,.1-.36.33.33,0,0,1,.25-.11.35.35,0,0,1,.21.07.54.54,0,0,1,.14.24.94.94,0,0,0,.38.21,1.68,1.68,0,0,0,.52.07,1.56,1.56,0,0,0,.75-.15c.08-.05.13-.1.13-.16s-.06-.16-.18-.22a2.61,2.61,0,0,0-.75-.15,2.2,2.2,0,0,1-1.13-.34.8.8,0,0,1-.28-.62.78.78,0,0,1,.31-.63,1.83,1.83,0,0,1,1.13-.34,2.42,2.42,0,0,1,.47.05,2.16,2.16,0,0,1,.43.14l.12-.07a.2.2,0,0,1,.1,0,.3.3,0,0,1,.24.1.52.52,0,0,1,.1.36v.17a.6.6,0,0,1-.06.32.34.34,0,0,1-.29.15.32.32,0,0,1-.23-.08A.37.37,0,0,1,35.14,241.73Z" transform="translate(-10 -7.42)"/><path class="cls-2" d="M39.34,241.73a1,1,0,0,0-.36-.16,1.23,1.23,0,0,0-.39-.06,1.33,1.33,0,0,0-.65.14c-.07,0-.1.08-.1.12s0,.11.14.16a2.16,2.16,0,0,0,.49.1,7.08,7.08,0,0,1,1,.19,1.18,1.18,0,0,1,.55.38.85.85,0,0,1,.2.53.77.77,0,0,1-.33.63,2,2,0,0,1-1.24.36,3.24,3.24,0,0,1-.56-.05,2.16,2.16,0,0,1-.47-.16l-.11.07a.25.25,0,0,1-.12,0,.33.33,0,0,1-.26-.1.5.5,0,0,1-.1-.36v-.24a.5.5,0,0,1,.1-.36.33.33,0,0,1,.25-.11.33.33,0,0,1,.21.07.54.54,0,0,1,.14.24.94.94,0,0,0,.38.21,1.68,1.68,0,0,0,.52.07,1.56,1.56,0,0,0,.75-.15c.09-.05.13-.1.13-.16s-.06-.16-.18-.22a2.61,2.61,0,0,0-.75-.15,2.2,2.2,0,0,1-1.13-.34.8.8,0,0,1-.28-.62.78.78,0,0,1,.31-.63,1.83,1.83,0,0,1,1.13-.34,2.42,2.42,0,0,1,.47.05,2.16,2.16,0,0,1,.43.14l.12-.07a.2.2,0,0,1,.1,0,.3.3,0,0,1,.24.1.52.52,0,0,1,.1.36v.17a.6.6,0,0,1-.06.32.34.34,0,0,1-.29.15.32.32,0,0,1-.23-.08A.37.37,0,0,1,39.34,241.73Z" transform="translate(-10 -7.42)"/><path class="cls-2" d="M43.13,240.91v2.4H44a.5.5,0,0,1,.36.1.31.31,0,0,1,.11.25.33.33,0,0,1-.11.25.5.5,0,0,1-.36.1H41.59a.5.5,0,0,1-.36-.1.33.33,0,0,1-.11-.25.31.31,0,0,1,.11-.25.5.5,0,0,1,.36-.1h.84v-1.7h-.56a.55.55,0,0,1-.36-.1.35.35,0,0,1-.11-.26.31.31,0,0,1,.11-.25.56.56,0,0,1,.36-.09ZM43,239.58v.74H42.2v-.74Z" transform="translate(-10 -7.42)"/><path class="cls-2" d="M48.81,242.51a1.56,1.56,0,0,1-.23.79,1.61,1.61,0,0,1-.66.6,2,2,0,0,1-.93.22,2,2,0,0,1-.92-.22,1.61,1.61,0,0,1-.66-.6,1.54,1.54,0,0,1-.23-.79,1.68,1.68,0,0,1,.9-1.47,2,2,0,0,1,.91-.23,1.89,1.89,0,0,1,.92.24,1.6,1.6,0,0,1,.67.64A1.67,1.67,0,0,1,48.81,242.51Zm-.71,0a.91.91,0,0,0-.24-.62,1.08,1.08,0,0,0-.87-.39,1.1,1.1,0,0,0-.79.31.94.94,0,0,0-.32.7.84.84,0,0,0,.32.62,1.16,1.16,0,0,0,.79.28,1.12,1.12,0,0,0,.79-.28A.81.81,0,0,0,48.1,242.52Z" transform="translate(-10 -7.42)"/><path class="cls-2" d="M50.32,243.62v1.15h.42a.53.53,0,0,1,.36.1.32.32,0,0,1,.1.25.3.3,0,0,1-.1.25.53.53,0,0,1-.36.1H49.5a.5.5,0,0,1-.36-.1.28.28,0,0,1-.11-.25.3.3,0,0,1,.11-.25.5.5,0,0,1,.36-.1h.11v-3.16H49.5a.55.55,0,0,1-.36-.1.31.31,0,0,1-.11-.26.31.31,0,0,1,.11-.25.56.56,0,0,1,.36-.09h.82v.23a2,2,0,0,1,.51-.25,1.89,1.89,0,0,1,.53-.08,1.74,1.74,0,0,1,1.23.49,1.5,1.5,0,0,1,.51,1.12,1.37,1.37,0,0,1-.6,1.14,1.85,1.85,0,0,1-1.13.38,2,2,0,0,1-1-.32Zm2.07-1.2a1,1,0,0,0-.11-.38,1.07,1.07,0,0,0-.93-.53,1,1,0,0,0-.83.4.9.9,0,0,0-.2.52.77.77,0,0,0,.29.54,1.16,1.16,0,0,0,1.49,0A.75.75,0,0,0,52.39,242.42Z" transform="translate(-10 -7.42)"/><path class="cls-2" d="M57.15,242.81H54.27a.87.87,0,0,0,.39.44,1.37,1.37,0,0,0,.75.17,4,4,0,0,0,1-.17,2.38,2.38,0,0,1,.37-.07.33.33,0,0,1,.23.1.33.33,0,0,1,.1.25.37.37,0,0,1-.1.24,1.9,1.9,0,0,1-.67.24,5.21,5.21,0,0,1-1,.11,1.89,1.89,0,0,1-1.34-.47,1.55,1.55,0,0,1-.51-1.17,1.48,1.48,0,0,1,.55-1.2,1.87,1.87,0,0,1,1.25-.47,2,2,0,0,1,.79.15,1.61,1.61,0,0,1,.53.33,2.31,2.31,0,0,1,.41.62,1.64,1.64,0,0,1,.11.6Zm-.78-.7a1.15,1.15,0,0,0-.42-.45,1.36,1.36,0,0,0-1.24,0,1.15,1.15,0,0,0-.42.45Z" transform="translate(-10 -7.42)"/><path class="cls-2" d="M59.93,240.91v2.4h.84a.55.55,0,0,1,.37.1.3.3,0,0,1,.1.25.32.32,0,0,1-.1.25.55.55,0,0,1-.37.1H58.39a.5.5,0,0,1-.36-.1.33.33,0,0,1-.11-.25.31.31,0,0,1,.11-.25.5.5,0,0,1,.36-.1h.84v-1.7h-.56a.55.55,0,0,1-.36-.1.35.35,0,0,1-.11-.26.34.34,0,0,1,.11-.25.56.56,0,0,1,.36-.09Zm-.09-1.33v.74H59v-.74Z" transform="translate(-10 -7.42)"/><path class="cls-2" d="M64.42,244v-.17a1.92,1.92,0,0,1-.58.21,2.54,2.54,0,0,1-.58.07,1.37,1.37,0,0,1-.92-.29.88.88,0,0,1-.35-.67,1.06,1.06,0,0,1,.45-.81,1.84,1.84,0,0,1,1.24-.38,4.16,4.16,0,0,1,.74.07v-.17a.31.31,0,0,0-.14-.26,1,1,0,0,0-.51-.1,3.18,3.18,0,0,0-.81.13,1.23,1.23,0,0,1-.28,0,.3.3,0,0,1-.24-.1.34.34,0,0,1-.1-.26.24.24,0,0,1,0-.15.24.24,0,0,1,.09-.11l.26-.09a3.12,3.12,0,0,1,.53-.11,3,3,0,0,1,.49-.05,1.66,1.66,0,0,1,1,.28.94.94,0,0,1,.36.78v1.44h.12a.5.5,0,0,1,.36.1.31.31,0,0,1,.11.25.33.33,0,0,1-.11.25.5.5,0,0,1-.36.1Zm0-1.26a4.49,4.49,0,0,0-.78-.08,1.26,1.26,0,0,0-.73.21c-.13.09-.19.18-.19.27a.18.18,0,0,0,.09.16.8.8,0,0,0,.47.11,2.09,2.09,0,0,0,.57-.09,2.16,2.16,0,0,0,.57-.28Z" transform="translate(-10 -7.42)"/><path class="cls-2" d="M68.52,243.66a.42.42,0,0,1-.14.33.52.52,0,0,1-.38.13.53.53,0,0,1-.39-.13.45.45,0,0,1-.14-.33.42.42,0,0,1,.14-.33.53.53,0,0,1,.39-.14.52.52,0,0,1,.38.14A.39.39,0,0,1,68.52,243.66Z" transform="translate(-10 -7.42)"/><path class="cls-2" d="M73.28,241a.37.37,0,0,1,.26-.12.34.34,0,0,1,.25.11.55.55,0,0,1,.1.36v.45a.55.55,0,0,1-.1.36.34.34,0,0,1-.26.1.35.35,0,0,1-.24-.08.45.45,0,0,1-.11-.25.42.42,0,0,0-.2-.28,1.36,1.36,0,0,0-.71-.17,1.1,1.1,0,0,0-.79.29,1,1,0,0,0-.3.74.78.78,0,0,0,.29.65,1.56,1.56,0,0,0,1,.23,2.32,2.32,0,0,0,.71-.09.7.7,0,0,0,.31-.18.42.42,0,0,1,.27-.13.33.33,0,0,1,.25.1.35.35,0,0,1,.1.25c0,.16-.1.3-.31.44a2.53,2.53,0,0,1-1.39.31,2.15,2.15,0,0,1-1.27-.33,1.47,1.47,0,0,1-.61-1.25,1.64,1.64,0,0,1,.5-1.24,1.79,1.79,0,0,1,1.3-.49,2.35,2.35,0,0,1,.54.06A1.67,1.67,0,0,1,73.28,241Z" transform="translate(-10 -7.42)"/><path class="cls-2" d="M78.21,242.51a1.55,1.55,0,0,1-.22.79,1.64,1.64,0,0,1-.67.6,2,2,0,0,1-.92.22,2,2,0,0,1-.92-.22,1.7,1.7,0,0,1-.67-.6,1.54,1.54,0,0,1-.23-.79,1.74,1.74,0,0,1,.9-1.47,2,2,0,0,1,.92-.23,1.94,1.94,0,0,1,.92.24,1.63,1.63,0,0,1,.66.64A1.57,1.57,0,0,1,78.21,242.51Zm-.7,0a.91.91,0,0,0-.24-.62,1.08,1.08,0,0,0-.87-.39,1.13,1.13,0,0,0-.8.31.94.94,0,0,0-.32.7.82.82,0,0,0,.33.62,1.12,1.12,0,0,0,.79.28,1.16,1.16,0,0,0,.79-.28A.84.84,0,0,0,77.51,242.52Z" transform="translate(-10 -7.42)"/><path class="cls-2" d="M79.51,240.91v.19a1.36,1.36,0,0,1,.31-.23.79.79,0,0,1,.32-.06.66.66,0,0,1,.3.07,1.2,1.2,0,0,1,.3.23,1.4,1.4,0,0,1,.36-.22,1,1,0,0,1,.38-.08,1,1,0,0,1,.64.21.9.9,0,0,1,.32.72v1.57a.44.44,0,0,1,.32.1.34.34,0,0,1,0,.5.5.5,0,0,1-.36.1h-.66V241.8a.3.3,0,0,0-.06-.22.21.21,0,0,0-.18-.07.31.31,0,0,0-.21.07,1.18,1.18,0,0,0-.31.32v1.41a.44.44,0,0,1,.32.1.34.34,0,0,1,0,.5.5.5,0,0,1-.36.1h-.66V241.8a.3.3,0,0,0-.06-.22.21.21,0,0,0-.18-.07.46.46,0,0,0-.24.08,1.1,1.1,0,0,0-.29.31v1.41a.48.48,0,0,1,.33.1.36.36,0,0,1,0,.5.53.53,0,0,1-.36.1h-.64a.5.5,0,0,1-.36-.1.33.33,0,0,1-.11-.25.31.31,0,0,1,.11-.25.45.45,0,0,1,.33-.1v-1.7a.5.5,0,0,1-.33-.1.35.35,0,0,1-.11-.26.34.34,0,0,1,.11-.25.56.56,0,0,1,.36-.09Z" transform="translate(-10 -7.42)"/><path class="cls-2" d="M85.33,243.66a.45.45,0,0,1-.14.33.65.65,0,0,1-.78,0,.45.45,0,0,1-.14-.33.42.42,0,0,1,.14-.33.61.61,0,0,1,.78,0A.42.42,0,0,1,85.33,243.66Z" transform="translate(-10 -7.42)"/><path class="cls-2" d="M89.62,244v-.17a1.82,1.82,0,0,1-.58.21,2.47,2.47,0,0,1-.58.07,1.34,1.34,0,0,1-.91-.29.85.85,0,0,1-.35-.67,1.06,1.06,0,0,1,.45-.81,1.82,1.82,0,0,1,1.24-.38,4.14,4.14,0,0,1,.73.07v-.17a.3.3,0,0,0-.13-.26,1,1,0,0,0-.52-.1,3.18,3.18,0,0,0-.8.13,1.3,1.3,0,0,1-.29,0,.33.33,0,0,1-.24-.1.38.38,0,0,1-.1-.26.33.33,0,0,1,0-.15.24.24,0,0,1,.09-.11l.26-.09a3.12,3.12,0,0,1,.53-.11,3,3,0,0,1,.49-.05,1.66,1.66,0,0,1,1,.28.94.94,0,0,1,.36.78v1.44h.12a.5.5,0,0,1,.36.1.28.28,0,0,1,.11.25.3.3,0,0,1-.11.25.5.5,0,0,1-.36.1Zm0-1.26a4.48,4.48,0,0,0-.77-.08,1.29,1.29,0,0,0-.74.21c-.13.09-.19.18-.19.27a.18.18,0,0,0,.09.16.82.82,0,0,0,.47.11,2.09,2.09,0,0,0,.57-.09,1.9,1.9,0,0,0,.57-.28Z" transform="translate(-10 -7.42)"/><path class="cls-2" d="M94.68,240.91v2.4a.45.45,0,0,1,.33.1.34.34,0,0,1,0,.5.5.5,0,0,1-.36.1H94v-.16a3,3,0,0,1-.57.2,2,2,0,0,1-.52.07,1.27,1.27,0,0,1-.6-.14,1.05,1.05,0,0,1-.4-.41.89.89,0,0,1-.11-.46v-1.5h-.12a.59.59,0,0,1-.36-.1.34.34,0,0,1-.1-.26.33.33,0,0,1,.1-.25.6.6,0,0,1,.36-.09h.82V243a.38.38,0,0,0,.44.43,1.65,1.65,0,0,0,.46-.08A3.47,3.47,0,0,0,94,243v-1.42h-.25a.55.55,0,0,1-.36-.1.35.35,0,0,1-.11-.26.34.34,0,0,1,.11-.25.56.56,0,0,1,.36-.09Z" transform="translate(-10 -7.42)"/></svg>