<?xml version="1.0" encoding="utf-8"?>
<!-- Generator: Adobe Illustrator 23.0.4, SVG Export Plug-In . SVG Version: 6.00 Build 0)  -->
<svg version="1.1" id="Layer_1" xmlns="http://www.w3.org/2000/svg" xmlns:xlink="http://www.w3.org/1999/xlink" x="0px" y="0px"
	 viewBox="0 0 1280 1280" style="enable-background:new 0 0 1280 1280;" xml:space="preserve">
<style type="text/css">
	.st0{fill:#4D4D4D;}
</style>
<g>
	<title>icons</title>
	<g id="Espresso">
		<path class="st0" d="M951,984.7H329c-32.8,0-59.5-26.7-59.5-59.5V783.5h740.9v141.8C1010.4,958,983.8,984.6,951,984.7z
			 M301.5,815.5v109.8c0,15.1,12.3,27.5,27.5,27.5h622h0c15.1,0,27.4-12.3,27.4-27.5V815.5H301.5z"/>
		<rect x="359.9" y="968.7" class="st0" width="83.5" height="46.9"/>
		<rect x="836.6" y="968.7" class="st0" width="83.5" height="46.9"/>
		<path class="st0" d="M965.1,815.5H314.9V433.6h650.2V815.5z M346.9,783.5h586.2V465.6H346.9V783.5z"/>
		<path class="st0" d="M553.5,449.6h172.9l0,0v85.5c0,15.3-12.4,27.7-27.6,27.7h0H581.2c-15.3,0-27.7-12.4-27.7-27.6v0V449.6
			L553.5,449.6z"/>
		<path class="st0" d="M604.1,553.6h9c4.5,0,8.1,3.6,8.1,8.1v9c0,4.5-3.6,8.1-8.1,8.1h-9c-4.5,0-8.1-3.6-8.1-8.1v-9
			C596.1,557.3,599.7,553.6,604.1,553.6z"/>
		<path class="st0" d="M664.7,553.6h9c4.5,0,8.1,3.6,8.1,8.1v9c0,4.5-3.6,8.1-8.1,8.1h-9c-4.5,0-8.1-3.6-8.1-8.1v-9
			C656.6,557.3,660.2,553.6,664.7,553.6z"/>
		<path class="st0" d="M586,638.3h108c11,0,19.8,8.9,19.8,19.8V706c0,25.1-20.3,45.4-45.4,45.4c0,0,0,0,0,0h-56.9
			c-25.1,0-45.4-20.3-45.4-45.4c0,0,0,0,0,0v-47.9C566.2,647.2,575,638.3,586,638.3z"/>
		<path class="st0" d="M705.9,719.7l-0.4-12c1.1,0,27.4-1.4,27.4-22.6c0-6.4-1.7-11.2-5-14.1c-5.6-4.9-14.4-3.9-14.5-3.9l-1.6-11.9
			c0.6-0.1,14.2-1.7,23.9,6.8c6.1,5.3,9.1,13.1,9.1,23.2C744.8,711.4,719.3,719.3,705.9,719.7z"/>
		<path class="st0" d="M1010.5,465.7H269.6V323.9c0-32.8,26.6-59.4,59.4-59.4h622c32.8,0,59.5,26.7,59.5,59.4V465.7z M301.6,433.7
			h676.9V323.9c0-15.1-12.3-27.4-27.5-27.4H329h0c-15.1,0-27.4,12.3-27.4,27.4V433.7z"/>
	</g>
</g>
</svg>
