<?xml version="1.0" encoding="utf-8"?>
<!-- Generator: Adobe Illustrator 23.0.4, SVG Export Plug-In . SVG Version: 6.00 Build 0)  -->
<svg version="1.1" id="Layer_1" xmlns="http://www.w3.org/2000/svg" xmlns:xlink="http://www.w3.org/1999/xlink" x="0px" y="0px"
	 viewBox="0 0 1280 1280" style="enable-background:new 0 0 1280 1280;" xml:space="preserve">
<style type="text/css">
	.st0{fill:#4D4D4D;}
</style>
<title>icons</title>
<g id="Moka">
	<path class="st0" d="M787.2,671.8H472.6c-7.9,0-14.7-5.8-15.8-13.7l-13.7-93.8l-77.5-135.1l-19.9-3.7c-7.6-1.4-13.1-8-13.1-15.7
		v-17.1c0-6,3.3-11.5,8.6-14.2l27.2-14.1c2.3-1.2,4.8-1.8,7.4-1.8h451.8c4.6,0,9.1,2,12.1,5.5s4.4,8.2,3.7,12.8L803,658.2
		C801.9,666,795.2,671.8,787.2,671.8z M486.4,639.8h286.9L809,394.6H379.7l-6.7,3.5l5.8,1.1c4.6,0.9,8.6,3.7,11,7.8l82.7,144.2
		c1,1.7,1.7,3.7,2,5.6L486.4,639.8z"/>
	<path class="st0" d="M827.5,394.6c-1.7,0-3.4-0.3-5.1-0.8l-197.1-66L380,394c-8.5,2.3-17.3-2.7-19.6-11.3
		c-2.3-8.5,2.7-17.3,11.3-19.6l250.1-67.6c3-0.8,6.3-0.7,9.3,0.3l201.7,67.6c8.4,2.8,12.9,11.9,10.1,20.3
		C840.5,390.3,834.2,394.6,827.5,394.6z"/>
	<path class="st0" d="M693.5,671.9c-0.3,0-0.6,0-1,0c-8.8-0.5-15.5-8.1-15-16.9L694,377.6c0.5-8.8,8.1-15.5,16.9-15
		c8.8,0.5,15.5,8.1,15,16.9l-16.6,277.3C708.9,665.3,701.9,671.9,693.5,671.9z"/>
	<path class="st0" d="M562.5,671.8c-8.5,0-15.5-6.7-16-15.2L533,379.3c-0.4-8.8,6.4-16.3,15.2-16.8c8.8-0.4,16.3,6.4,16.8,15.2
		l13.5,277.3c0.4,8.8-6.4,16.3-15.2,16.8C563,671.8,562.8,671.8,562.5,671.8z"/>
	<path class="st0" d="M458.5,575.1c-0.5,0-1.1,0-1.6-0.1c-8.8-0.9-15.2-8.7-14.3-17.5l18.2-180.5c0.9-8.8,8.7-15.2,17.5-14.3
		c8.8,0.9,15.2,8.7,14.3,17.5l-18.2,180.5C473.6,568.9,466.6,575.1,458.5,575.1z"/>
	<g>
		<polyline class="st0" points="485.8,655.8 485.7,729 773.1,729 773.1,655.8 		"/>
		<path class="st0" d="M773.1,745H485.7c-4.2,0-8.3-1.7-11.3-4.7c-3-3-4.7-7.1-4.7-11.3l0-73.1c0-8.8,7.2-16,16-16c0,0,0,0,0,0
			c8.8,0,16,7.2,16,16l0,57.1h255.4v-57.1c0-8.8,7.2-16,16-16s16,7.2,16,16V729C789.1,737.8,781.9,745,773.1,745z"/>
	</g>
	<path class="st0" d="M709.6,1051H540.2c-1.1,0-2.2-0.1-3.3-0.3l-99.8-21.2c-8.3-1.8-13.8-9.8-12.5-18.2l45.4-282.3
		c1.4-8.7,9.6-14.7,18.3-13.3c8.7,1.4,14.7,9.6,13.3,18.3l-43,267.3l83.3,17.7h166l92.5-20.5l-43-264.4c-1.4-8.7,4.5-16.9,13.2-18.4
		c8.7-1.4,16.9,4.5,18.4,13.2l45.4,279.3c1.4,8.4-4,16.3-12.3,18.2L713,1050.6C711.9,1050.9,710.7,1051,709.6,1051z"/>
	<path class="st0" d="M540.2,1051c-0.4,0-0.9,0-1.4-0.1c-8.8-0.7-15.3-8.5-14.6-17.3l25.4-303.5c0.7-8.8,8.5-15.3,17.3-14.6
		c8.8,0.7,15.3,8.5,14.6,17.3l-25.4,303.5C555.4,1044.7,548.4,1051,540.2,1051z"/>
	<path class="st0" d="M709.5,1051c-8.3,0-15.3-6.4-15.9-14.8L670,732.7c-0.7-8.8,5.9-16.5,14.7-17.2c8.8-0.7,16.5,5.9,17.2,14.7
		l23.6,303.5c0.7,8.8-5.9,16.5-14.7,17.2C710.4,1051,710,1051,709.5,1051z"/>
	<g>
		<circle class="st0" cx="626.9" cy="808.1" r="12.6"/>
		<path class="st0" d="M626.9,836.7c-15.8,0-28.6-12.8-28.6-28.6c0-15.8,12.8-28.6,28.6-28.6c15.8,0,28.6,12.8,28.6,28.6
			C655.5,823.9,642.7,836.7,626.9,836.7z M626.9,804.7c-1.9,0-3.4,1.5-3.4,3.4c0,1.9,1.5,3.4,3.4,3.4c1.9,0,3.4-1.5,3.4-3.4
			C630.3,806.2,628.8,804.7,626.9,804.7z"/>
	</g>
	<g>
		<rect x="605.2" y="245" class="st0" width="37.3" height="59.4"/>
		<path class="st0" d="M642.5,320.4h-37.3c-8.8,0-16-7.2-16-16V245c0-8.8,7.2-16,16-16h37.3c8.8,0,16,7.2,16,16v59.4
			C658.5,313.2,651.3,320.4,642.5,320.4z M621.2,288.4h5.3V261h-5.3V288.4z"/>
	</g>
	<g>
		<path class="st0" d="M828.5,383.6c0,0,90.2-38.8,101.3,35.8S888.5,615,888.5,615l-35.3-16.1c0,0,61.5-155.3,39.3-172.4
			s-80.7,71.9-80.7,71.9"/>
		<path class="st0" d="M888.5,631c-2.3,0-4.5-0.5-6.7-1.4l-35.3-16.1c-7.7-3.5-11.4-12.5-8.2-20.4c0.1-0.3,13.6-34.4,25.4-71.6
			c15.3-48.1,17.7-69.8,17.6-78.8c-5.3,3.3-15.1,11.2-30.8,30.3c-14.1,17.2-25.3,34.2-25.4,34.3c-4.9,7.4-14.8,9.4-22.2,4.6
			c-7.4-4.9-9.4-14.8-4.6-22.2c0.5-0.7,12.1-18.3,27.1-36.7c29.7-36.3,45.8-42.6,55.3-44.2c8-1.3,15.4,0.4,21.5,5.1
			c13.6,10.5,17.8,33.2-5.8,110c-8.1,26.4-17.3,51.7-23,66.8l6.4,2.9c13.1-34,42.2-117.4,34.1-171.7c-2-13.7-7.2-22.7-15.8-27.5
			c-19.1-10.7-52.2-0.7-63.4,4.1c-8.1,3.5-17.5-0.3-21-8.4c-3.5-8.1,0.3-17.5,8.4-21c5.6-2.4,55.4-22.8,91.6-2.6
			c12.1,6.8,27.5,21.1,31.9,50.8c11.6,78.2-40.3,199.2-42.5,204.3c-1.7,3.9-4.9,7-8.9,8.6C892.4,630.6,890.5,631,888.5,631z"/>
	</g>
</g>
</svg>
